%FSLAX46Y46*%
G04 Gerber Fmt 4.6, Leading zero omitted, Abs format (unit mm)*
G04 Created by KiCad (PCBNEW (2014-07-07 BZR 4986)-product) date Fri 18 Jul 2014 08:12:10 PM EDT*
%MOMM*%
G01*
G04 APERTURE LIST*
%ADD10C,0.100000*%
%ADD11R,1.450000X1.000000*%
%ADD12R,1.000000X1.450000*%
%ADD13R,1.050000X1.750000*%
%ADD14R,1.900000X0.400000*%
%ADD15R,1.400000X1.600000*%
%ADD16R,1.900000X1.800000*%
%ADD17R,1.900000X1.900000*%
%ADD18C,5.650000*%
%ADD19C,1.524000*%
%ADD20C,1.651000*%
%ADD21C,3.302000*%
%ADD22R,1.650000X1.650000*%
%ADD23C,1.650000*%
%ADD24R,1.450000X0.300000*%
%ADD25R,0.300000X1.450000*%
%ADD26R,1.300000X0.600000*%
%ADD27R,0.900000X1.800000*%
%ADD28R,3.200000X1.800000*%
%ADD29R,2.450000X2.100000*%
%ADD30R,2.100000X2.450000*%
%ADD31R,1.450000X0.450000*%
%ADD32R,0.450000X1.850000*%
%ADD33C,1.540000*%
%ADD34C,3.300000*%
G04 APERTURE END LIST*
D10*
X50000000Y-98600000D02*
X50000000Y-51400000D01*
X135200000Y-98600000D02*
X50000000Y-98600000D01*
X135200000Y-51400000D02*
X135200000Y-98600000D01*
X50000000Y-51400000D02*
X135200000Y-51400000D01*
D11*
X91500000Y-76050000D03*
X91500000Y-77950000D03*
D12*
X86050000Y-89000000D03*
X87950000Y-89000000D03*
X90050000Y-72000000D03*
X91950000Y-72000000D03*
X98150000Y-72000000D03*
X96250000Y-72000000D03*
X100450000Y-91700000D03*
X98550000Y-91700000D03*
D11*
X100800000Y-56250000D03*
X100800000Y-58150000D03*
D12*
X104950000Y-87500000D03*
X103050000Y-87500000D03*
X104950000Y-83500000D03*
X103050000Y-83500000D03*
X109350000Y-93100000D03*
X107450000Y-93100000D03*
X109350000Y-80700000D03*
X107450000Y-80700000D03*
X82550000Y-74200000D03*
X80650000Y-74200000D03*
X82550000Y-61800000D03*
X80650000Y-61800000D03*
D11*
X100400000Y-68150000D03*
X100400000Y-66250000D03*
D12*
X85318240Y-63679000D03*
X87218240Y-63679000D03*
X116450000Y-72700000D03*
X118350000Y-72700000D03*
X116450000Y-68100000D03*
X118350000Y-68100000D03*
X116450000Y-75000000D03*
X118350000Y-75000000D03*
X116450000Y-70400000D03*
X118350000Y-70400000D03*
X109950000Y-75600000D03*
X111850000Y-75600000D03*
X60950000Y-90500000D03*
X59050000Y-90500000D03*
X60950000Y-83000000D03*
X59050000Y-83000000D03*
D11*
X72000000Y-84950000D03*
X72000000Y-83050000D03*
X82000000Y-84950000D03*
X82000000Y-83050000D03*
D13*
X68000000Y-93500000D03*
X65000000Y-93500000D03*
D14*
X54450000Y-84700000D03*
X54450000Y-85350000D03*
X54450000Y-86000000D03*
X54450000Y-86650000D03*
X54450000Y-87300000D03*
D15*
X53850000Y-82800000D03*
X53850000Y-89200000D03*
D16*
X51500000Y-82000000D03*
X51500000Y-90000000D03*
D17*
X51500000Y-84800000D03*
X51500000Y-87200000D03*
D12*
X87550000Y-70300000D03*
X85650000Y-70300000D03*
D18*
X53600000Y-55000000D03*
X53600000Y-95000000D03*
X131600000Y-95000000D03*
X131600000Y-55000000D03*
D19*
X72500000Y-73080000D03*
X72500000Y-71048000D03*
X72500000Y-69016000D03*
X72500000Y-66984000D03*
X72500000Y-64952000D03*
X72500000Y-62920000D03*
D20*
X74963800Y-75213600D03*
X74963800Y-72673600D03*
X74963800Y-63326400D03*
X74963800Y-60786400D03*
D21*
X61324000Y-61650000D03*
X61324000Y-74350000D03*
D20*
X58149000Y-76064500D03*
X58149000Y-59935500D03*
D22*
X71500000Y-95800000D03*
D23*
X74040000Y-95800000D03*
X76580000Y-95800000D03*
X79120000Y-95800000D03*
X81660000Y-95800000D03*
X84200000Y-95800000D03*
X86740000Y-95800000D03*
X89280000Y-95800000D03*
X91820000Y-95800000D03*
X94360000Y-95800000D03*
D22*
X85900000Y-85800000D03*
D23*
X85900000Y-83260000D03*
X85900000Y-80720000D03*
X85900000Y-78180000D03*
X85900000Y-75640000D03*
X85900000Y-73100000D03*
D22*
X98500000Y-95800000D03*
D23*
X101040000Y-95800000D03*
X103580000Y-95800000D03*
X106120000Y-95800000D03*
X108660000Y-95800000D03*
X111200000Y-95800000D03*
D22*
X104300000Y-63400000D03*
D23*
X104300000Y-65940000D03*
X104300000Y-68480000D03*
X104300000Y-71020000D03*
X104300000Y-73560000D03*
X104300000Y-76100000D03*
D22*
X108458000Y-62230000D03*
D23*
X110998000Y-62230000D03*
X113538000Y-62230000D03*
D22*
X113538000Y-64770000D03*
D23*
X110998000Y-64770000D03*
X108458000Y-64770000D03*
D11*
X86800000Y-58150000D03*
X86800000Y-56250000D03*
D12*
X82550000Y-76600000D03*
X80650000Y-76600000D03*
X82550000Y-59400000D03*
X80650000Y-59400000D03*
X80650000Y-71800000D03*
X82550000Y-71800000D03*
X82550000Y-69400000D03*
X80650000Y-69400000D03*
X80650000Y-66600000D03*
X82550000Y-66600000D03*
X82550000Y-64200000D03*
X80650000Y-64200000D03*
X60050000Y-93500000D03*
X61950000Y-93500000D03*
D11*
X71500000Y-90550000D03*
X71500000Y-92450000D03*
D12*
X60950000Y-85500000D03*
X59050000Y-85500000D03*
X60950000Y-88000000D03*
X59050000Y-88000000D03*
D11*
X64000000Y-88050000D03*
X64000000Y-89950000D03*
D24*
X99750000Y-87750000D03*
X99750000Y-87250000D03*
X99750000Y-86750000D03*
X99750000Y-86250000D03*
X99750000Y-85750000D03*
X99750000Y-85250000D03*
X99750000Y-84750000D03*
X99750000Y-84250000D03*
X99750000Y-83750000D03*
X99750000Y-83250000D03*
X99750000Y-82750000D03*
X99750000Y-82250000D03*
D25*
X98250000Y-80750000D03*
X97750000Y-80750000D03*
X97250000Y-80750000D03*
X96750000Y-80750000D03*
X96250000Y-80750000D03*
X95750000Y-80750000D03*
X95250000Y-80750000D03*
X94750000Y-80750000D03*
X94250000Y-80750000D03*
X93750000Y-80750000D03*
X93250000Y-80750000D03*
X92750000Y-80750000D03*
D24*
X91250000Y-82250000D03*
X91250000Y-82750000D03*
X91250000Y-83250000D03*
X91250000Y-83750000D03*
X91250000Y-84250000D03*
X91250000Y-84750000D03*
X91250000Y-85250000D03*
X91250000Y-85750000D03*
X91250000Y-86250000D03*
X91250000Y-86750000D03*
X91250000Y-87250000D03*
X91250000Y-87750000D03*
D25*
X92750000Y-89250000D03*
X93250000Y-89250000D03*
X93750000Y-89250000D03*
X94250000Y-89250000D03*
X94750000Y-89250000D03*
X95250000Y-89250000D03*
X95750000Y-89250000D03*
X96250000Y-89250000D03*
X96750000Y-89250000D03*
X97250000Y-89250000D03*
X97750000Y-89250000D03*
X98250000Y-89250000D03*
D26*
X66950000Y-88050000D03*
X66950000Y-89950000D03*
X69050000Y-89000000D03*
D27*
X74700000Y-87000000D03*
X77000000Y-87000000D03*
X79300000Y-87000000D03*
D28*
X77000000Y-81000000D03*
D29*
X90600000Y-68000000D03*
X97400000Y-68000000D03*
D30*
X109200000Y-90400000D03*
X109200000Y-83600000D03*
D31*
X113800000Y-73375000D03*
X113800000Y-72725000D03*
X113800000Y-72075000D03*
X113800000Y-71425000D03*
X113800000Y-70775000D03*
X113800000Y-70125000D03*
X113800000Y-69475000D03*
X113800000Y-68825000D03*
X108000000Y-68825000D03*
X108000000Y-69475000D03*
X108000000Y-70125000D03*
X108000000Y-70775000D03*
X108000000Y-71425000D03*
X108000000Y-72075000D03*
X108000000Y-72725000D03*
X108000000Y-73375000D03*
D32*
X98025000Y-56700000D03*
X97375000Y-56700000D03*
X96725000Y-56700000D03*
X96075000Y-56700000D03*
X95425000Y-56700000D03*
X94775000Y-56700000D03*
X94125000Y-56700000D03*
X93475000Y-56700000D03*
X92825000Y-56700000D03*
X92175000Y-56700000D03*
X91525000Y-56700000D03*
X90875000Y-56700000D03*
X90225000Y-56700000D03*
X89575000Y-56700000D03*
X89575000Y-63700000D03*
X90225000Y-63700000D03*
X90875000Y-63700000D03*
X91525000Y-63700000D03*
X92175000Y-63700000D03*
X92825000Y-63700000D03*
X93475000Y-63700000D03*
X94125000Y-63700000D03*
X94775000Y-63700000D03*
X95425000Y-63700000D03*
X96075000Y-63700000D03*
X96725000Y-63700000D03*
X97375000Y-63700000D03*
X98025000Y-63700000D03*
D33*
X125900000Y-69520000D03*
X125900000Y-72260000D03*
X125900000Y-75000000D03*
X125900000Y-77740000D03*
X125900000Y-80480000D03*
X128740000Y-70890000D03*
X128740000Y-73630000D03*
X128740000Y-76370000D03*
X128740000Y-79110000D03*
D34*
X127320000Y-62505000D03*
X127320000Y-87495000D03*
M02*
