%FSLAX46Y46*%
G04 Gerber Fmt 4.6, Leading zero omitted, Abs format (unit mm)*
G04 Created by KiCad (PCBNEW (2014-07-07 BZR 4986)-product) date Fri 18 Jul 2014 08:12:10 PM EDT*
%MOMM*%
G01*
G04 APERTURE LIST*
%ADD10C,0.100000*%
%ADD11C,5.650000*%
%ADD12C,1.524000*%
%ADD13C,1.651000*%
%ADD14C,3.302000*%
%ADD15R,1.650000X1.650000*%
%ADD16C,1.650000*%
%ADD17C,1.540000*%
%ADD18C,3.300000*%
%ADD19C,0.584200*%
%ADD20C,0.381000*%
%ADD21C,0.254000*%
G04 APERTURE END LIST*
D10*
X50000000Y-98600000D02*
X50000000Y-51400000D01*
X135200000Y-98600000D02*
X50000000Y-98600000D01*
X135200000Y-51400000D02*
X135200000Y-98600000D01*
X50000000Y-51400000D02*
X135200000Y-51400000D01*
D11*
X53600000Y-55000000D03*
X53600000Y-95000000D03*
X131600000Y-95000000D03*
X131600000Y-55000000D03*
D12*
X72500000Y-73080000D03*
X72500000Y-71048000D03*
X72500000Y-69016000D03*
X72500000Y-66984000D03*
X72500000Y-64952000D03*
X72500000Y-62920000D03*
D13*
X74963800Y-75213600D03*
X74963800Y-72673600D03*
X74963800Y-63326400D03*
X74963800Y-60786400D03*
D14*
X61324000Y-61650000D03*
X61324000Y-74350000D03*
D13*
X58149000Y-76064500D03*
X58149000Y-59935500D03*
D15*
X71500000Y-95800000D03*
D16*
X74040000Y-95800000D03*
X76580000Y-95800000D03*
X79120000Y-95800000D03*
X81660000Y-95800000D03*
X84200000Y-95800000D03*
X86740000Y-95800000D03*
X89280000Y-95800000D03*
X91820000Y-95800000D03*
X94360000Y-95800000D03*
D15*
X85900000Y-85800000D03*
D16*
X85900000Y-83260000D03*
X85900000Y-80720000D03*
X85900000Y-78180000D03*
X85900000Y-75640000D03*
X85900000Y-73100000D03*
D15*
X98500000Y-95800000D03*
D16*
X101040000Y-95800000D03*
X103580000Y-95800000D03*
X106120000Y-95800000D03*
X108660000Y-95800000D03*
X111200000Y-95800000D03*
D15*
X104300000Y-63400000D03*
D16*
X104300000Y-65940000D03*
X104300000Y-68480000D03*
X104300000Y-71020000D03*
X104300000Y-73560000D03*
X104300000Y-76100000D03*
D15*
X108458000Y-62230000D03*
D16*
X110998000Y-62230000D03*
X113538000Y-62230000D03*
D15*
X113538000Y-64770000D03*
D16*
X110998000Y-64770000D03*
X108458000Y-64770000D03*
D17*
X125900000Y-69520000D03*
X125900000Y-72260000D03*
X125900000Y-75000000D03*
X125900000Y-77740000D03*
X125900000Y-80480000D03*
X128740000Y-70890000D03*
X128740000Y-73630000D03*
X128740000Y-76370000D03*
X128740000Y-79110000D03*
D18*
X127320000Y-62505000D03*
X127320000Y-87495000D03*
D19*
X85699600Y-90449400D03*
X92354400Y-66268600D03*
X87400000Y-66800000D03*
X92800000Y-86600000D03*
X75800000Y-86600000D03*
X73400000Y-86400000D03*
X99000000Y-58800000D03*
X85200000Y-65200000D03*
X86800000Y-59800000D03*
X91200000Y-58800000D03*
X114000000Y-75600000D03*
X100600000Y-69800000D03*
X95400000Y-70000000D03*
X91400000Y-74600000D03*
X84000000Y-90600000D03*
X104600000Y-81800000D03*
X97800000Y-84800000D03*
X102000000Y-91600000D03*
X96000000Y-87600000D03*
X95000000Y-82800000D03*
X73400000Y-91600000D03*
X70200000Y-85200000D03*
X120400000Y-71200000D03*
X96600000Y-92400000D03*
X96217514Y-97288547D03*
X97200000Y-90800000D03*
X95600000Y-96800000D03*
X93600000Y-77800000D03*
X93400000Y-78600000D03*
X89000000Y-80400000D03*
X87400000Y-92400000D03*
X89000000Y-81200000D03*
X88000000Y-91800000D03*
X89000000Y-82000000D03*
X88600000Y-91200000D03*
X88800000Y-82800000D03*
X89200000Y-90600000D03*
X90830400Y-89230200D03*
X88925400Y-87757000D03*
X101600000Y-84400000D03*
X104200000Y-88800000D03*
X84400000Y-73200000D03*
X88200000Y-62000000D03*
X84200000Y-71800000D03*
X84200000Y-62600000D03*
X84200000Y-61000000D03*
X83577690Y-64200000D03*
X88600000Y-87000000D03*
X92800000Y-84800000D03*
X95000000Y-60600000D03*
X94800000Y-66200000D03*
X96800000Y-74200000D03*
X95000000Y-59600000D03*
X94113683Y-60814012D03*
X95800000Y-74200000D03*
X97655166Y-74636777D03*
X93600000Y-58800000D03*
X95600000Y-75200000D03*
X93400000Y-60200000D03*
X95000000Y-75800000D03*
X92744842Y-60636772D03*
X115824000Y-66548000D03*
D20*
X70200000Y-85200000D02*
X73400000Y-88400000D01*
X73400000Y-88400000D02*
X73400000Y-91600000D01*
D21*
X96217514Y-97288547D02*
X96600000Y-96906061D01*
X96600000Y-96906061D02*
X96600000Y-92400000D01*
X95600000Y-96800000D02*
X95892099Y-96507901D01*
X95892099Y-96507901D02*
X95892099Y-92107901D01*
X95892099Y-92107901D02*
X97200000Y-90800000D01*
X81660000Y-95800000D02*
X82815201Y-96955201D01*
X82815201Y-96955201D02*
X87294497Y-96955201D01*
X94022301Y-78222301D02*
X93600000Y-77800000D01*
X87294497Y-96955201D02*
X88124799Y-96124899D01*
X88124799Y-96124899D02*
X88124799Y-95245503D01*
X88124799Y-95245503D02*
X88913093Y-94457209D01*
X88913093Y-94457209D02*
X91789383Y-94457209D01*
X91789383Y-94457209D02*
X94022301Y-92224291D01*
X94022301Y-92224291D02*
X94022301Y-78222301D01*
X91600000Y-94000000D02*
X93422301Y-92177699D01*
X93422301Y-92177699D02*
X93422301Y-78622301D01*
X93422301Y-78622301D02*
X93400000Y-78600000D01*
X84200000Y-95800000D02*
X86000000Y-94000000D01*
X86000000Y-94000000D02*
X91600000Y-94000000D01*
X87400000Y-92400000D02*
X86721006Y-92400000D01*
X86721006Y-92400000D02*
X84251800Y-89930794D01*
X84251800Y-89930794D02*
X84251800Y-83198502D01*
X84251800Y-83198502D02*
X85575101Y-81875201D01*
X85575101Y-81875201D02*
X87265116Y-81875201D01*
X87265116Y-81875201D02*
X88740317Y-80400000D01*
X88740317Y-80400000D02*
X89000000Y-80400000D01*
X87063280Y-82723629D02*
X88586909Y-81200000D01*
X88586909Y-81200000D02*
X89000000Y-81200000D01*
X87063280Y-90863280D02*
X87063280Y-82723629D01*
X88000000Y-91800000D02*
X87063280Y-90863280D01*
X87520490Y-90120490D02*
X87520490Y-83066419D01*
X88586909Y-82000000D02*
X89000000Y-82000000D01*
X87520490Y-83066419D02*
X88586909Y-82000000D01*
X88600000Y-91200000D02*
X87520490Y-90120490D01*
X87977699Y-83622301D02*
X88507901Y-83092099D01*
X88507901Y-83092099D02*
X88800000Y-82800000D01*
X89200000Y-90600000D02*
X87977699Y-89377699D01*
X87977699Y-89377699D02*
X87977699Y-83622301D01*
X90830400Y-89230200D02*
X89357200Y-87757000D01*
X89357200Y-87757000D02*
X89338491Y-87757000D01*
X89338491Y-87757000D02*
X88925400Y-87757000D01*
X104200000Y-87000000D02*
X104200000Y-88800000D01*
X101600000Y-84400000D02*
X104200000Y-87000000D01*
X88200000Y-62000000D02*
X88200000Y-68721006D01*
X88200000Y-68721006D02*
X84400000Y-72521006D01*
X84400000Y-72521006D02*
X84400000Y-73200000D01*
X84200000Y-71800000D02*
X83448000Y-71048000D01*
X83448000Y-71048000D02*
X72500000Y-71048000D01*
X84200000Y-61000000D02*
X84200000Y-62600000D01*
X83577690Y-64200000D02*
X82825690Y-64952000D01*
X82825690Y-64952000D02*
X72500000Y-64952000D01*
X90800000Y-84800000D02*
X92800000Y-84800000D01*
X88600000Y-87000000D02*
X90800000Y-84800000D01*
X94800000Y-66200000D02*
X94800000Y-60800000D01*
X94800000Y-60800000D02*
X95000000Y-60600000D01*
X96800000Y-73786909D02*
X96800000Y-74200000D01*
X95000000Y-59600000D02*
X96800000Y-61400000D01*
X96800000Y-61400000D02*
X96800000Y-73786909D01*
X95800000Y-74200000D02*
X94113683Y-72513683D01*
X94113683Y-61227103D02*
X94113683Y-60814012D01*
X94113683Y-72513683D02*
X94113683Y-61227103D01*
X93600000Y-58800000D02*
X95321006Y-58800000D01*
X97655166Y-74223686D02*
X97655166Y-74636777D01*
X97655166Y-61134160D02*
X97655166Y-74223686D01*
X95321006Y-58800000D02*
X97655166Y-61134160D01*
X95307901Y-74907901D02*
X95600000Y-75200000D01*
X93433910Y-73033910D02*
X95307901Y-74907901D01*
X93433910Y-60647001D02*
X93433910Y-73033910D01*
X93400000Y-60200000D02*
X93400000Y-60613091D01*
X93400000Y-60613091D02*
X93433910Y-60647001D01*
X92744842Y-60636772D02*
X92744842Y-61049863D01*
X94707901Y-75507901D02*
X95000000Y-75800000D01*
X92976701Y-61281722D02*
X92976701Y-73776701D01*
X92744842Y-61049863D02*
X92976701Y-61281722D01*
X92976701Y-73776701D02*
X94707901Y-75507901D01*
X108458000Y-62230000D02*
X108610400Y-62230000D01*
X108610400Y-62230000D02*
X109905800Y-63525400D01*
X109905800Y-63525400D02*
X112293400Y-63525400D01*
X112293400Y-63525400D02*
X113538000Y-64770000D01*
X110998000Y-64770000D02*
X110998000Y-66190726D01*
X111355274Y-66548000D02*
X115824000Y-66548000D01*
X110998000Y-66190726D02*
X111355274Y-66548000D01*
G36*
X87225419Y-91743839D02*
X87019217Y-91829041D01*
X86956148Y-91892000D01*
X86931426Y-91892000D01*
X84759800Y-89720373D01*
X84759800Y-86848615D01*
X84859181Y-86947996D01*
X84999215Y-87006000D01*
X85150786Y-87006000D01*
X85792050Y-87006000D01*
X85887300Y-86910750D01*
X85887300Y-85812700D01*
X85867300Y-85812700D01*
X85867300Y-85787300D01*
X85887300Y-85787300D01*
X85887300Y-84689250D01*
X85792050Y-84594000D01*
X85150786Y-84594000D01*
X84999215Y-84594000D01*
X84859181Y-84652004D01*
X84759800Y-84751384D01*
X84759800Y-83658589D01*
X84877007Y-83942252D01*
X85215964Y-84281801D01*
X85659059Y-84465790D01*
X86138836Y-84466209D01*
X86555280Y-84294137D01*
X86555280Y-84594000D01*
X86007950Y-84594000D01*
X85912700Y-84689250D01*
X85912700Y-85787300D01*
X85932700Y-85787300D01*
X85932700Y-85812700D01*
X85912700Y-85812700D01*
X85912700Y-86910750D01*
X86007950Y-87006000D01*
X86555280Y-87006000D01*
X86555280Y-90863280D01*
X86593949Y-91057683D01*
X86704070Y-91222490D01*
X87225419Y-91743839D01*
X87225419Y-91743839D01*
G37*
X87225419Y-91743839D02*
X87019217Y-91829041D01*
X86956148Y-91892000D01*
X86931426Y-91892000D01*
X84759800Y-89720373D01*
X84759800Y-86848615D01*
X84859181Y-86947996D01*
X84999215Y-87006000D01*
X85150786Y-87006000D01*
X85792050Y-87006000D01*
X85887300Y-86910750D01*
X85887300Y-85812700D01*
X85867300Y-85812700D01*
X85867300Y-85787300D01*
X85887300Y-85787300D01*
X85887300Y-84689250D01*
X85792050Y-84594000D01*
X85150786Y-84594000D01*
X84999215Y-84594000D01*
X84859181Y-84652004D01*
X84759800Y-84751384D01*
X84759800Y-83658589D01*
X84877007Y-83942252D01*
X85215964Y-84281801D01*
X85659059Y-84465790D01*
X86138836Y-84466209D01*
X86555280Y-84294137D01*
X86555280Y-84594000D01*
X86007950Y-84594000D01*
X85912700Y-84689250D01*
X85912700Y-85787300D01*
X85932700Y-85787300D01*
X85932700Y-85812700D01*
X85912700Y-85812700D01*
X85912700Y-86910750D01*
X86007950Y-87006000D01*
X86555280Y-87006000D01*
X86555280Y-90863280D01*
X86593949Y-91057683D01*
X86704070Y-91222490D01*
X87225419Y-91743839D01*
G36*
X96292000Y-73740120D02*
X96181778Y-73629706D01*
X95934475Y-73527017D01*
X95845359Y-73526939D01*
X94621683Y-72303262D01*
X94621683Y-66854778D01*
X94665525Y-66872983D01*
X94933301Y-66873217D01*
X95180783Y-66770959D01*
X95370294Y-66581778D01*
X95472983Y-66334475D01*
X95473217Y-66066699D01*
X95370959Y-65819217D01*
X95308000Y-65756148D01*
X95308000Y-61201032D01*
X95380783Y-61170959D01*
X95570294Y-60981778D01*
X95597599Y-60916019D01*
X96292000Y-61610420D01*
X96292000Y-73740120D01*
X96292000Y-73740120D01*
G37*
X96292000Y-73740120D02*
X96181778Y-73629706D01*
X95934475Y-73527017D01*
X95845359Y-73526939D01*
X94621683Y-72303262D01*
X94621683Y-66854778D01*
X94665525Y-66872983D01*
X94933301Y-66873217D01*
X95180783Y-66770959D01*
X95370294Y-66581778D01*
X95472983Y-66334475D01*
X95473217Y-66066699D01*
X95370959Y-65819217D01*
X95308000Y-65756148D01*
X95308000Y-61201032D01*
X95380783Y-61170959D01*
X95570294Y-60981778D01*
X95597599Y-60916019D01*
X96292000Y-61610420D01*
X96292000Y-73740120D01*
G36*
X134473000Y-93557820D02*
X134319499Y-93186320D01*
X133418424Y-92283670D01*
X132240511Y-91794558D01*
X130965085Y-91793445D01*
X129891199Y-92237165D01*
X129891199Y-78882056D01*
X129891199Y-76142056D01*
X129891199Y-73402056D01*
X129891199Y-70662056D01*
X129716339Y-70238863D01*
X129392840Y-69914799D01*
X129351352Y-69897571D01*
X129351352Y-62102781D01*
X129042802Y-61356034D01*
X128471971Y-60784206D01*
X127725763Y-60474353D01*
X126917781Y-60473648D01*
X126171034Y-60782198D01*
X125599206Y-61353029D01*
X125289353Y-62099237D01*
X125288648Y-62907219D01*
X125597198Y-63653966D01*
X126168029Y-64225794D01*
X126914237Y-64535647D01*
X127722219Y-64536352D01*
X128468966Y-64227802D01*
X129040794Y-63656971D01*
X129350647Y-62910763D01*
X129351352Y-62102781D01*
X129351352Y-69897571D01*
X128969952Y-69739201D01*
X128512056Y-69738801D01*
X128088863Y-69913661D01*
X127764799Y-70237160D01*
X127589201Y-70660048D01*
X127588801Y-71117944D01*
X127763661Y-71541137D01*
X128087160Y-71865201D01*
X128510048Y-72040799D01*
X128967944Y-72041199D01*
X129391137Y-71866339D01*
X129715201Y-71542840D01*
X129890799Y-71119952D01*
X129891199Y-70662056D01*
X129891199Y-73402056D01*
X129716339Y-72978863D01*
X129392840Y-72654799D01*
X128969952Y-72479201D01*
X128512056Y-72478801D01*
X128088863Y-72653661D01*
X127764799Y-72977160D01*
X127589201Y-73400048D01*
X127588801Y-73857944D01*
X127763661Y-74281137D01*
X128087160Y-74605201D01*
X128510048Y-74780799D01*
X128967944Y-74781199D01*
X129391137Y-74606339D01*
X129715201Y-74282840D01*
X129890799Y-73859952D01*
X129891199Y-73402056D01*
X129891199Y-76142056D01*
X129716339Y-75718863D01*
X129392840Y-75394799D01*
X128969952Y-75219201D01*
X128512056Y-75218801D01*
X128088863Y-75393661D01*
X127764799Y-75717160D01*
X127589201Y-76140048D01*
X127588801Y-76597944D01*
X127763661Y-77021137D01*
X128087160Y-77345201D01*
X128510048Y-77520799D01*
X128967944Y-77521199D01*
X129391137Y-77346339D01*
X129715201Y-77022840D01*
X129890799Y-76599952D01*
X129891199Y-76142056D01*
X129891199Y-78882056D01*
X129716339Y-78458863D01*
X129392840Y-78134799D01*
X128969952Y-77959201D01*
X128512056Y-77958801D01*
X128088863Y-78133661D01*
X127764799Y-78457160D01*
X127589201Y-78880048D01*
X127588801Y-79337944D01*
X127763661Y-79761137D01*
X128087160Y-80085201D01*
X128510048Y-80260799D01*
X128967944Y-80261199D01*
X129391137Y-80086339D01*
X129715201Y-79762840D01*
X129890799Y-79339952D01*
X129891199Y-78882056D01*
X129891199Y-92237165D01*
X129786320Y-92280501D01*
X129351352Y-92714710D01*
X129351352Y-87092781D01*
X129042802Y-86346034D01*
X128471971Y-85774206D01*
X127725763Y-85464353D01*
X127057046Y-85463769D01*
X127057046Y-80283884D01*
X127051199Y-80268548D01*
X127051199Y-77512056D01*
X127051199Y-74772056D01*
X127051199Y-72032056D01*
X127051199Y-69292056D01*
X126876339Y-68868863D01*
X126552840Y-68544799D01*
X126129952Y-68369201D01*
X125672056Y-68368801D01*
X125248863Y-68543661D01*
X124924799Y-68867160D01*
X124749201Y-69290048D01*
X124748801Y-69747944D01*
X124923661Y-70171137D01*
X125247160Y-70495201D01*
X125670048Y-70670799D01*
X126127944Y-70671199D01*
X126551137Y-70496339D01*
X126875201Y-70172840D01*
X127050799Y-69749952D01*
X127051199Y-69292056D01*
X127051199Y-72032056D01*
X126876339Y-71608863D01*
X126552840Y-71284799D01*
X126129952Y-71109201D01*
X125672056Y-71108801D01*
X125248863Y-71283661D01*
X124924799Y-71607160D01*
X124749201Y-72030048D01*
X124748801Y-72487944D01*
X124923661Y-72911137D01*
X125247160Y-73235201D01*
X125670048Y-73410799D01*
X126127944Y-73411199D01*
X126551137Y-73236339D01*
X126875201Y-72912840D01*
X127050799Y-72489952D01*
X127051199Y-72032056D01*
X127051199Y-74772056D01*
X126876339Y-74348863D01*
X126552840Y-74024799D01*
X126129952Y-73849201D01*
X125672056Y-73848801D01*
X125248863Y-74023661D01*
X124924799Y-74347160D01*
X124749201Y-74770048D01*
X124748801Y-75227944D01*
X124923661Y-75651137D01*
X125247160Y-75975201D01*
X125670048Y-76150799D01*
X126127944Y-76151199D01*
X126551137Y-75976339D01*
X126875201Y-75652840D01*
X127050799Y-75229952D01*
X127051199Y-74772056D01*
X127051199Y-77512056D01*
X126876339Y-77088863D01*
X126552840Y-76764799D01*
X126129952Y-76589201D01*
X125672056Y-76588801D01*
X125248863Y-76763661D01*
X124924799Y-77087160D01*
X124749201Y-77510048D01*
X124748801Y-77967944D01*
X124923661Y-78391137D01*
X125247160Y-78715201D01*
X125670048Y-78890799D01*
X126127944Y-78891199D01*
X126551137Y-78716339D01*
X126875201Y-78392840D01*
X127050799Y-77969952D01*
X127051199Y-77512056D01*
X127051199Y-80268548D01*
X126893921Y-79856031D01*
X126856830Y-79800520D01*
X126671400Y-79726561D01*
X126653439Y-79744522D01*
X126653439Y-79708600D01*
X126579480Y-79523170D01*
X126161595Y-79335978D01*
X125703884Y-79322954D01*
X125276031Y-79486079D01*
X125220520Y-79523170D01*
X125146561Y-79708600D01*
X125900000Y-80462039D01*
X126653439Y-79708600D01*
X126653439Y-79744522D01*
X125917961Y-80480000D01*
X126671400Y-81233439D01*
X126856830Y-81159480D01*
X127044022Y-80741595D01*
X127057046Y-80283884D01*
X127057046Y-85463769D01*
X126917781Y-85463648D01*
X126653439Y-85572872D01*
X126653439Y-81251400D01*
X125900000Y-80497961D01*
X125882039Y-80515922D01*
X125882039Y-80480000D01*
X125128600Y-79726561D01*
X124943170Y-79800520D01*
X124755978Y-80218405D01*
X124742954Y-80676116D01*
X124906079Y-81103969D01*
X124943170Y-81159480D01*
X125128600Y-81233439D01*
X125882039Y-80480000D01*
X125882039Y-80515922D01*
X125146561Y-81251400D01*
X125220520Y-81436830D01*
X125638405Y-81624022D01*
X126096116Y-81637046D01*
X126523969Y-81473921D01*
X126579480Y-81436830D01*
X126653439Y-81251400D01*
X126653439Y-85572872D01*
X126171034Y-85772198D01*
X125599206Y-86343029D01*
X125289353Y-87089237D01*
X125288648Y-87897219D01*
X125597198Y-88643966D01*
X126168029Y-89215794D01*
X126914237Y-89525647D01*
X127722219Y-89526352D01*
X128468966Y-89217802D01*
X129040794Y-88646971D01*
X129350647Y-87900763D01*
X129351352Y-87092781D01*
X129351352Y-92714710D01*
X128883670Y-93181576D01*
X128394558Y-94359489D01*
X128393445Y-95634915D01*
X128880501Y-96813680D01*
X129781576Y-97716330D01*
X130158879Y-97873000D01*
X121073217Y-97873000D01*
X121073217Y-71066699D01*
X120970959Y-70819217D01*
X120781778Y-70629706D01*
X120534475Y-70527017D01*
X120266699Y-70526783D01*
X120019217Y-70629041D01*
X119829706Y-70818222D01*
X119727017Y-71065525D01*
X119726783Y-71333301D01*
X119829041Y-71580783D01*
X120018222Y-71770294D01*
X120265525Y-71872983D01*
X120533301Y-71873217D01*
X120780783Y-71770959D01*
X120970294Y-71581778D01*
X121072983Y-71334475D01*
X121073217Y-71066699D01*
X121073217Y-97873000D01*
X116497217Y-97873000D01*
X116497217Y-66414699D01*
X116394959Y-66167217D01*
X116205778Y-65977706D01*
X115958475Y-65875017D01*
X115690699Y-65874783D01*
X115443217Y-65977041D01*
X115380148Y-66040000D01*
X114744209Y-66040000D01*
X114744209Y-61991164D01*
X114560993Y-61547748D01*
X114222036Y-61208199D01*
X113778941Y-61024210D01*
X113299164Y-61023791D01*
X112855748Y-61207007D01*
X112516199Y-61545964D01*
X112332210Y-61989059D01*
X112331791Y-62468836D01*
X112515007Y-62912252D01*
X112853964Y-63251801D01*
X113297059Y-63435790D01*
X113776836Y-63436209D01*
X114220252Y-63252993D01*
X114559801Y-62914036D01*
X114743790Y-62470941D01*
X114744209Y-61991164D01*
X114744209Y-66040000D01*
X111565694Y-66040000D01*
X111506000Y-65980306D01*
X111506000Y-65864992D01*
X111680252Y-65792993D01*
X112019801Y-65454036D01*
X112203790Y-65010941D01*
X112204209Y-64531164D01*
X112020993Y-64087748D01*
X111966739Y-64033400D01*
X112082980Y-64033400D01*
X112332000Y-64282420D01*
X112332000Y-65670786D01*
X112390004Y-65810820D01*
X112497181Y-65917996D01*
X112637215Y-65976000D01*
X112788786Y-65976000D01*
X114438786Y-65976000D01*
X114578820Y-65917996D01*
X114685996Y-65810819D01*
X114744000Y-65670785D01*
X114744000Y-65519214D01*
X114744000Y-63869214D01*
X114685996Y-63729180D01*
X114578819Y-63622004D01*
X114438785Y-63564000D01*
X114287214Y-63564000D01*
X113050420Y-63564000D01*
X112652610Y-63166190D01*
X112487803Y-63056069D01*
X112293400Y-63017400D01*
X111916256Y-63017400D01*
X112019801Y-62914036D01*
X112203790Y-62470941D01*
X112204209Y-61991164D01*
X112020993Y-61547748D01*
X111682036Y-61208199D01*
X111238941Y-61024210D01*
X110759164Y-61023791D01*
X110315748Y-61207007D01*
X109976199Y-61545964D01*
X109792210Y-61989059D01*
X109791791Y-62468836D01*
X109949612Y-62850792D01*
X109664000Y-62565180D01*
X109664000Y-61329214D01*
X109605996Y-61189180D01*
X109498819Y-61082004D01*
X109358785Y-61024000D01*
X109207214Y-61024000D01*
X107557214Y-61024000D01*
X107417180Y-61082004D01*
X107310004Y-61189181D01*
X107252000Y-61329215D01*
X107252000Y-61480786D01*
X107252000Y-63130786D01*
X107310004Y-63270820D01*
X107417181Y-63377996D01*
X107557215Y-63436000D01*
X107708786Y-63436000D01*
X109097980Y-63436000D01*
X109546590Y-63884610D01*
X109711396Y-63994731D01*
X109711397Y-63994731D01*
X109743649Y-64001146D01*
X109905800Y-64033400D01*
X110028854Y-64033400D01*
X109976199Y-64085964D01*
X109792210Y-64529059D01*
X109791791Y-65008836D01*
X109975007Y-65452252D01*
X110313964Y-65791801D01*
X110490000Y-65864897D01*
X110490000Y-66190726D01*
X110528669Y-66385129D01*
X110638790Y-66549936D01*
X110996064Y-66907210D01*
X111160871Y-67017331D01*
X111355274Y-67056000D01*
X115380036Y-67056000D01*
X115442222Y-67118294D01*
X115689525Y-67220983D01*
X115957301Y-67221217D01*
X116204783Y-67118959D01*
X116394294Y-66929778D01*
X116496983Y-66682475D01*
X116497217Y-66414699D01*
X116497217Y-97873000D01*
X112406209Y-97873000D01*
X112406209Y-95561164D01*
X112222993Y-95117748D01*
X111884036Y-94778199D01*
X111440941Y-94594210D01*
X110961164Y-94593791D01*
X110517748Y-94777007D01*
X110178199Y-95115964D01*
X109994210Y-95559059D01*
X109993791Y-96038836D01*
X110177007Y-96482252D01*
X110515964Y-96821801D01*
X110959059Y-97005790D01*
X111438836Y-97006209D01*
X111882252Y-96822993D01*
X112221801Y-96484036D01*
X112405790Y-96040941D01*
X112406209Y-95561164D01*
X112406209Y-97873000D01*
X109866209Y-97873000D01*
X109866209Y-95561164D01*
X109682993Y-95117748D01*
X109664209Y-95098931D01*
X109664209Y-64531164D01*
X109480993Y-64087748D01*
X109142036Y-63748199D01*
X108698941Y-63564210D01*
X108219164Y-63563791D01*
X107775748Y-63747007D01*
X107436199Y-64085964D01*
X107252210Y-64529059D01*
X107251791Y-65008836D01*
X107435007Y-65452252D01*
X107773964Y-65791801D01*
X108217059Y-65975790D01*
X108696836Y-65976209D01*
X109140252Y-65792993D01*
X109479801Y-65454036D01*
X109663790Y-65010941D01*
X109664209Y-64531164D01*
X109664209Y-95098931D01*
X109344036Y-94778199D01*
X108900941Y-94594210D01*
X108421164Y-94593791D01*
X107977748Y-94777007D01*
X107638199Y-95115964D01*
X107454210Y-95559059D01*
X107453791Y-96038836D01*
X107637007Y-96482252D01*
X107975964Y-96821801D01*
X108419059Y-97005790D01*
X108898836Y-97006209D01*
X109342252Y-96822993D01*
X109681801Y-96484036D01*
X109865790Y-96040941D01*
X109866209Y-95561164D01*
X109866209Y-97873000D01*
X107326209Y-97873000D01*
X107326209Y-95561164D01*
X107142993Y-95117748D01*
X106804036Y-94778199D01*
X106360941Y-94594210D01*
X105881164Y-94593791D01*
X105506209Y-94748719D01*
X105506209Y-75861164D01*
X105506209Y-73321164D01*
X105506209Y-70781164D01*
X105506209Y-68241164D01*
X105506209Y-65701164D01*
X105506000Y-65700658D01*
X105506000Y-64300786D01*
X105506000Y-63507950D01*
X105506000Y-63292050D01*
X105506000Y-62499214D01*
X105447996Y-62359180D01*
X105340819Y-62252004D01*
X105200785Y-62194000D01*
X105049214Y-62194000D01*
X104407950Y-62194000D01*
X104312700Y-62289250D01*
X104312700Y-63387300D01*
X105410750Y-63387300D01*
X105506000Y-63292050D01*
X105506000Y-63507950D01*
X105410750Y-63412700D01*
X104312700Y-63412700D01*
X104312700Y-64510750D01*
X104407950Y-64606000D01*
X105049214Y-64606000D01*
X105200785Y-64606000D01*
X105340819Y-64547996D01*
X105447996Y-64440820D01*
X105506000Y-64300786D01*
X105506000Y-65700658D01*
X105322993Y-65257748D01*
X104984036Y-64918199D01*
X104540941Y-64734210D01*
X104287300Y-64733988D01*
X104287300Y-64510750D01*
X104287300Y-63412700D01*
X104287300Y-63387300D01*
X104287300Y-62289250D01*
X104192050Y-62194000D01*
X103550786Y-62194000D01*
X103399215Y-62194000D01*
X103259181Y-62252004D01*
X103152004Y-62359180D01*
X103094000Y-62499214D01*
X103094000Y-63292050D01*
X103189250Y-63387300D01*
X104287300Y-63387300D01*
X104287300Y-63412700D01*
X103189250Y-63412700D01*
X103094000Y-63507950D01*
X103094000Y-64300786D01*
X103152004Y-64440820D01*
X103259181Y-64547996D01*
X103399215Y-64606000D01*
X103550786Y-64606000D01*
X104192050Y-64606000D01*
X104287300Y-64510750D01*
X104287300Y-64733988D01*
X104061164Y-64733791D01*
X103617748Y-64917007D01*
X103278199Y-65255964D01*
X103094210Y-65699059D01*
X103093791Y-66178836D01*
X103277007Y-66622252D01*
X103615964Y-66961801D01*
X104059059Y-67145790D01*
X104538836Y-67146209D01*
X104982252Y-66962993D01*
X105321801Y-66624036D01*
X105505790Y-66180941D01*
X105506209Y-65701164D01*
X105506209Y-68241164D01*
X105322993Y-67797748D01*
X104984036Y-67458199D01*
X104540941Y-67274210D01*
X104061164Y-67273791D01*
X103617748Y-67457007D01*
X103278199Y-67795964D01*
X103094210Y-68239059D01*
X103093791Y-68718836D01*
X103277007Y-69162252D01*
X103615964Y-69501801D01*
X104059059Y-69685790D01*
X104538836Y-69686209D01*
X104982252Y-69502993D01*
X105321801Y-69164036D01*
X105505790Y-68720941D01*
X105506209Y-68241164D01*
X105506209Y-70781164D01*
X105322993Y-70337748D01*
X104984036Y-69998199D01*
X104540941Y-69814210D01*
X104061164Y-69813791D01*
X103617748Y-69997007D01*
X103278199Y-70335964D01*
X103094210Y-70779059D01*
X103093791Y-71258836D01*
X103277007Y-71702252D01*
X103615964Y-72041801D01*
X104059059Y-72225790D01*
X104538836Y-72226209D01*
X104982252Y-72042993D01*
X105321801Y-71704036D01*
X105505790Y-71260941D01*
X105506209Y-70781164D01*
X105506209Y-73321164D01*
X105322993Y-72877748D01*
X104984036Y-72538199D01*
X104540941Y-72354210D01*
X104061164Y-72353791D01*
X103617748Y-72537007D01*
X103278199Y-72875964D01*
X103094210Y-73319059D01*
X103093791Y-73798836D01*
X103277007Y-74242252D01*
X103615964Y-74581801D01*
X104059059Y-74765790D01*
X104538836Y-74766209D01*
X104982252Y-74582993D01*
X105321801Y-74244036D01*
X105505790Y-73800941D01*
X105506209Y-73321164D01*
X105506209Y-75861164D01*
X105322993Y-75417748D01*
X104984036Y-75078199D01*
X104540941Y-74894210D01*
X104061164Y-74893791D01*
X103617748Y-75077007D01*
X103278199Y-75415964D01*
X103094210Y-75859059D01*
X103093791Y-76338836D01*
X103277007Y-76782252D01*
X103615964Y-77121801D01*
X104059059Y-77305790D01*
X104538836Y-77306209D01*
X104982252Y-77122993D01*
X105321801Y-76784036D01*
X105505790Y-76340941D01*
X105506209Y-75861164D01*
X105506209Y-94748719D01*
X105437748Y-94777007D01*
X105098199Y-95115964D01*
X104914210Y-95559059D01*
X104913791Y-96038836D01*
X105097007Y-96482252D01*
X105435964Y-96821801D01*
X105879059Y-97005790D01*
X106358836Y-97006209D01*
X106802252Y-96822993D01*
X107141801Y-96484036D01*
X107325790Y-96040941D01*
X107326209Y-95561164D01*
X107326209Y-97873000D01*
X104873217Y-97873000D01*
X104873217Y-88666699D01*
X104770959Y-88419217D01*
X104708000Y-88356148D01*
X104708000Y-87000000D01*
X104675746Y-86837849D01*
X104669331Y-86805597D01*
X104669331Y-86805596D01*
X104559210Y-86640790D01*
X102273140Y-84354720D01*
X102273217Y-84266699D01*
X102170959Y-84019217D01*
X101981778Y-83829706D01*
X101734475Y-83727017D01*
X101466699Y-83726783D01*
X101219217Y-83829041D01*
X101029706Y-84018222D01*
X100927017Y-84265525D01*
X100926783Y-84533301D01*
X101029041Y-84780783D01*
X101218222Y-84970294D01*
X101465525Y-85072983D01*
X101554640Y-85073060D01*
X103692000Y-87210420D01*
X103692000Y-88356036D01*
X103629706Y-88418222D01*
X103527017Y-88665525D01*
X103526783Y-88933301D01*
X103629041Y-89180783D01*
X103818222Y-89370294D01*
X104065525Y-89472983D01*
X104333301Y-89473217D01*
X104580783Y-89370959D01*
X104770294Y-89181778D01*
X104872983Y-88934475D01*
X104873217Y-88666699D01*
X104873217Y-97873000D01*
X104792436Y-97873000D01*
X104792436Y-95595111D01*
X104621737Y-95146728D01*
X104582200Y-95087557D01*
X104391056Y-95006905D01*
X104373095Y-95024866D01*
X104373095Y-94988944D01*
X104292443Y-94797800D01*
X103854686Y-94601448D01*
X103375111Y-94587564D01*
X102926728Y-94758263D01*
X102867557Y-94797800D01*
X102786905Y-94988944D01*
X103580000Y-95782039D01*
X104373095Y-94988944D01*
X104373095Y-95024866D01*
X103597961Y-95800000D01*
X104391056Y-96593095D01*
X104582200Y-96512443D01*
X104778552Y-96074686D01*
X104792436Y-95595111D01*
X104792436Y-97873000D01*
X104373095Y-97873000D01*
X104373095Y-96611056D01*
X103580000Y-95817961D01*
X103562039Y-95835922D01*
X103562039Y-95800000D01*
X102768944Y-95006905D01*
X102577800Y-95087557D01*
X102381448Y-95525314D01*
X102367564Y-96004889D01*
X102538263Y-96453272D01*
X102577800Y-96512443D01*
X102768944Y-96593095D01*
X103562039Y-95800000D01*
X103562039Y-95835922D01*
X102786905Y-96611056D01*
X102867557Y-96802200D01*
X103305314Y-96998552D01*
X103784889Y-97012436D01*
X104233272Y-96841737D01*
X104292443Y-96802200D01*
X104373095Y-96611056D01*
X104373095Y-97873000D01*
X102246209Y-97873000D01*
X102246209Y-95561164D01*
X102062993Y-95117748D01*
X101724036Y-94778199D01*
X101280941Y-94594210D01*
X100801164Y-94593791D01*
X100357748Y-94777007D01*
X100018199Y-95115964D01*
X99834210Y-95559059D01*
X99833791Y-96038836D01*
X100017007Y-96482252D01*
X100355964Y-96821801D01*
X100799059Y-97005790D01*
X101278836Y-97006209D01*
X101722252Y-96822993D01*
X102061801Y-96484036D01*
X102245790Y-96040941D01*
X102246209Y-95561164D01*
X102246209Y-97873000D01*
X99706000Y-97873000D01*
X99706000Y-96700785D01*
X99706000Y-96549214D01*
X99706000Y-94899214D01*
X99647996Y-94759180D01*
X99540819Y-94652004D01*
X99400785Y-94594000D01*
X99249214Y-94594000D01*
X98328383Y-94594000D01*
X98328383Y-74503476D01*
X98226125Y-74255994D01*
X98163166Y-74192925D01*
X98163166Y-61134160D01*
X98124497Y-60939757D01*
X98014376Y-60774950D01*
X95680216Y-58440790D01*
X95515409Y-58330669D01*
X95321006Y-58292000D01*
X94043963Y-58292000D01*
X93981778Y-58229706D01*
X93734475Y-58127017D01*
X93466699Y-58126783D01*
X93219217Y-58229041D01*
X93029706Y-58418222D01*
X92927017Y-58665525D01*
X92926783Y-58933301D01*
X93029041Y-59180783D01*
X93218222Y-59370294D01*
X93465525Y-59472983D01*
X93733301Y-59473217D01*
X93980783Y-59370959D01*
X94043851Y-59308000D01*
X94392426Y-59308000D01*
X94327017Y-59465525D01*
X94326783Y-59733301D01*
X94429041Y-59980783D01*
X94548092Y-60100041D01*
X94430984Y-60216945D01*
X94248158Y-60141029D01*
X94073152Y-60140876D01*
X94073217Y-60066699D01*
X93970959Y-59819217D01*
X93781778Y-59629706D01*
X93534475Y-59527017D01*
X93266699Y-59526783D01*
X93019217Y-59629041D01*
X92829706Y-59818222D01*
X92769301Y-59963692D01*
X92611541Y-59963555D01*
X92364059Y-60065813D01*
X92174548Y-60254994D01*
X92071859Y-60502297D01*
X92071625Y-60770073D01*
X92173883Y-61017555D01*
X92244483Y-61088278D01*
X92275511Y-61244266D01*
X92385632Y-61409073D01*
X92468701Y-61492142D01*
X92468701Y-73776701D01*
X92507370Y-73971104D01*
X92617491Y-74135911D01*
X94326859Y-75845280D01*
X94326783Y-75933301D01*
X94429041Y-76180783D01*
X94618222Y-76370294D01*
X94865525Y-76472983D01*
X95133301Y-76473217D01*
X95380783Y-76370959D01*
X95570294Y-76181778D01*
X95672983Y-75934475D01*
X95673036Y-75873164D01*
X95733301Y-75873217D01*
X95980783Y-75770959D01*
X96170294Y-75581778D01*
X96272983Y-75334475D01*
X96273217Y-75066699D01*
X96170959Y-74819217D01*
X96139721Y-74787925D01*
X96180783Y-74770959D01*
X96300041Y-74651907D01*
X96418222Y-74770294D01*
X96665525Y-74872983D01*
X96933301Y-74873217D01*
X97011256Y-74841006D01*
X97084207Y-75017560D01*
X97273388Y-75207071D01*
X97520691Y-75309760D01*
X97788467Y-75309994D01*
X98035949Y-75207736D01*
X98225460Y-75018555D01*
X98328149Y-74771252D01*
X98328383Y-74503476D01*
X98328383Y-94594000D01*
X97599214Y-94594000D01*
X97459180Y-94652004D01*
X97352004Y-94759181D01*
X97294000Y-94899215D01*
X97294000Y-95050786D01*
X97294000Y-96700786D01*
X97352004Y-96840820D01*
X97459181Y-96947996D01*
X97599215Y-97006000D01*
X97750786Y-97006000D01*
X99400786Y-97006000D01*
X99540820Y-96947996D01*
X99647996Y-96840819D01*
X99706000Y-96700785D01*
X99706000Y-97873000D01*
X96565639Y-97873000D01*
X96598297Y-97859506D01*
X96787808Y-97670325D01*
X96890497Y-97423022D01*
X96890574Y-97333906D01*
X96959210Y-97265271D01*
X97069331Y-97100464D01*
X97108000Y-96906061D01*
X97108000Y-92843963D01*
X97170294Y-92781778D01*
X97272983Y-92534475D01*
X97273217Y-92266699D01*
X97170959Y-92019217D01*
X96981778Y-91829706D01*
X96916019Y-91802400D01*
X97245279Y-91473140D01*
X97333301Y-91473217D01*
X97580783Y-91370959D01*
X97770294Y-91181778D01*
X97872983Y-90934475D01*
X97873217Y-90666699D01*
X97770959Y-90419217D01*
X97581778Y-90229706D01*
X97334475Y-90127017D01*
X97066699Y-90126783D01*
X96819217Y-90229041D01*
X96629706Y-90418222D01*
X96527017Y-90665525D01*
X96526939Y-90754640D01*
X95532889Y-91748691D01*
X95422768Y-91913498D01*
X95384099Y-92107901D01*
X95384099Y-95120424D01*
X95382993Y-95117748D01*
X95044036Y-94778199D01*
X94600941Y-94594210D01*
X94530301Y-94594148D01*
X94530301Y-92224291D01*
X94530301Y-78222301D01*
X94491632Y-78027898D01*
X94381511Y-77863091D01*
X94273140Y-77754720D01*
X94273217Y-77666699D01*
X94170959Y-77419217D01*
X93981778Y-77229706D01*
X93734475Y-77127017D01*
X93466699Y-77126783D01*
X93219217Y-77229041D01*
X93029706Y-77418222D01*
X92927017Y-77665525D01*
X92926783Y-77933301D01*
X92981782Y-78066410D01*
X92829706Y-78218222D01*
X92727017Y-78465525D01*
X92726783Y-78733301D01*
X92829041Y-78980783D01*
X92914301Y-79066191D01*
X92914301Y-84126999D01*
X92666699Y-84126783D01*
X92419217Y-84229041D01*
X92356148Y-84292000D01*
X90800000Y-84292000D01*
X90605597Y-84330669D01*
X90440790Y-84440790D01*
X88554720Y-86326859D01*
X88485699Y-86326799D01*
X88485699Y-83832721D01*
X88845279Y-83473140D01*
X88933301Y-83473217D01*
X89180783Y-83370959D01*
X89370294Y-83181778D01*
X89472983Y-82934475D01*
X89473217Y-82666699D01*
X89418217Y-82533589D01*
X89570294Y-82381778D01*
X89672983Y-82134475D01*
X89673217Y-81866699D01*
X89570959Y-81619217D01*
X89551907Y-81600132D01*
X89570294Y-81581778D01*
X89672983Y-81334475D01*
X89673217Y-81066699D01*
X89570959Y-80819217D01*
X89551907Y-80800132D01*
X89570294Y-80781778D01*
X89672983Y-80534475D01*
X89673217Y-80266699D01*
X89570959Y-80019217D01*
X89381778Y-79829706D01*
X89134475Y-79727017D01*
X88873217Y-79726788D01*
X88873217Y-61866699D01*
X88770959Y-61619217D01*
X88581778Y-61429706D01*
X88334475Y-61327017D01*
X88066699Y-61326783D01*
X87819217Y-61429041D01*
X87629706Y-61618222D01*
X87527017Y-61865525D01*
X87526783Y-62133301D01*
X87629041Y-62380783D01*
X87692000Y-62443851D01*
X87692000Y-68510585D01*
X84873217Y-71329368D01*
X84873217Y-62466699D01*
X84770959Y-62219217D01*
X84708000Y-62156148D01*
X84708000Y-61443963D01*
X84770294Y-61381778D01*
X84872983Y-61134475D01*
X84873217Y-60866699D01*
X84770959Y-60619217D01*
X84581778Y-60429706D01*
X84334475Y-60327017D01*
X84066699Y-60326783D01*
X83819217Y-60429041D01*
X83629706Y-60618222D01*
X83527017Y-60865525D01*
X83526783Y-61133301D01*
X83629041Y-61380783D01*
X83692000Y-61443851D01*
X83692000Y-62156036D01*
X83629706Y-62218222D01*
X83527017Y-62465525D01*
X83526783Y-62733301D01*
X83629041Y-62980783D01*
X83818222Y-63170294D01*
X84065525Y-63272983D01*
X84333301Y-63273217D01*
X84580783Y-63170959D01*
X84770294Y-62981778D01*
X84872983Y-62734475D01*
X84873217Y-62466699D01*
X84873217Y-71329368D01*
X84774587Y-71427998D01*
X84770959Y-71419217D01*
X84581778Y-71229706D01*
X84334475Y-71127017D01*
X84245359Y-71126939D01*
X83807210Y-70688790D01*
X83642403Y-70578669D01*
X83448000Y-70540000D01*
X73526826Y-70540000D01*
X73469554Y-70401388D01*
X73148303Y-70079577D01*
X73033963Y-70032099D01*
X73146612Y-69985554D01*
X73468423Y-69664303D01*
X73642801Y-69244354D01*
X73643198Y-68789641D01*
X73469554Y-68369388D01*
X73148303Y-68047577D01*
X73033963Y-68000099D01*
X73146612Y-67953554D01*
X73468423Y-67632303D01*
X73642801Y-67212354D01*
X73643198Y-66757641D01*
X73469554Y-66337388D01*
X73148303Y-66015577D01*
X73033963Y-65968099D01*
X73146612Y-65921554D01*
X73468423Y-65600303D01*
X73526681Y-65460000D01*
X82825690Y-65460000D01*
X83020093Y-65421331D01*
X83184900Y-65311210D01*
X83622970Y-64873140D01*
X83710991Y-64873217D01*
X83958473Y-64770959D01*
X84147984Y-64581778D01*
X84250673Y-64334475D01*
X84250907Y-64066699D01*
X84148649Y-63819217D01*
X83959468Y-63629706D01*
X83712165Y-63527017D01*
X83444389Y-63526783D01*
X83196907Y-63629041D01*
X83007396Y-63818222D01*
X82904707Y-64065525D01*
X82904629Y-64154640D01*
X82615269Y-64444000D01*
X76176740Y-64444000D01*
X76176740Y-63121431D01*
X76170509Y-63105063D01*
X76170509Y-60547465D01*
X75987218Y-60103865D01*
X75648120Y-59764175D01*
X75204841Y-59580110D01*
X74724865Y-59579691D01*
X74281265Y-59762982D01*
X73941575Y-60102080D01*
X73757510Y-60545359D01*
X73757091Y-61025335D01*
X73940382Y-61468935D01*
X74279480Y-61808625D01*
X74722759Y-61992690D01*
X75202735Y-61993109D01*
X75646335Y-61809818D01*
X75986025Y-61470720D01*
X76170090Y-61027441D01*
X76170509Y-60547465D01*
X76170509Y-63105063D01*
X76005972Y-62672861D01*
X75966413Y-62613657D01*
X75775216Y-62532944D01*
X75757256Y-62550904D01*
X75757256Y-62514984D01*
X75676543Y-62323787D01*
X75238605Y-62127351D01*
X74758831Y-62113460D01*
X74310261Y-62284228D01*
X74251057Y-62323787D01*
X74170344Y-62514984D01*
X74963800Y-63308439D01*
X75757256Y-62514984D01*
X75757256Y-62550904D01*
X74981761Y-63326400D01*
X75775216Y-64119856D01*
X75966413Y-64039143D01*
X76162849Y-63601205D01*
X76176740Y-63121431D01*
X76176740Y-64444000D01*
X75419206Y-64444000D01*
X75617339Y-64368572D01*
X75676543Y-64329013D01*
X75757256Y-64137816D01*
X74963800Y-63344361D01*
X74945839Y-63362321D01*
X74945839Y-63326400D01*
X74152384Y-62532944D01*
X73961187Y-62613657D01*
X73764751Y-63051595D01*
X73750860Y-63531369D01*
X73921628Y-63979939D01*
X73961187Y-64039143D01*
X74152384Y-64119856D01*
X74945839Y-63326400D01*
X74945839Y-63362321D01*
X74170344Y-64137816D01*
X74251057Y-64329013D01*
X74507411Y-64444000D01*
X73526826Y-64444000D01*
X73469554Y-64305388D01*
X73148303Y-63983577D01*
X73033963Y-63936099D01*
X73146612Y-63889554D01*
X73468423Y-63568303D01*
X73642801Y-63148354D01*
X73643198Y-62693641D01*
X73469554Y-62273388D01*
X73148303Y-61951577D01*
X72728354Y-61777199D01*
X72273641Y-61776802D01*
X71853388Y-61950446D01*
X71531577Y-62271697D01*
X71357199Y-62691646D01*
X71356802Y-63146359D01*
X71530446Y-63566612D01*
X71851697Y-63888423D01*
X71966036Y-63935900D01*
X71853388Y-63982446D01*
X71531577Y-64303697D01*
X71357199Y-64723646D01*
X71356802Y-65178359D01*
X71530446Y-65598612D01*
X71851697Y-65920423D01*
X71966036Y-65967900D01*
X71853388Y-66014446D01*
X71531577Y-66335697D01*
X71357199Y-66755646D01*
X71356802Y-67210359D01*
X71530446Y-67630612D01*
X71851697Y-67952423D01*
X71966036Y-67999900D01*
X71853388Y-68046446D01*
X71531577Y-68367697D01*
X71357199Y-68787646D01*
X71356802Y-69242359D01*
X71530446Y-69662612D01*
X71851697Y-69984423D01*
X71966036Y-70031900D01*
X71853388Y-70078446D01*
X71531577Y-70399697D01*
X71357199Y-70819646D01*
X71356802Y-71274359D01*
X71530446Y-71694612D01*
X71851697Y-72016423D01*
X71966036Y-72063900D01*
X71853388Y-72110446D01*
X71531577Y-72431697D01*
X71357199Y-72851646D01*
X71356802Y-73306359D01*
X71530446Y-73726612D01*
X71851697Y-74048423D01*
X72271646Y-74222801D01*
X72726359Y-74223198D01*
X73146612Y-74049554D01*
X73468423Y-73728303D01*
X73642801Y-73308354D01*
X73643198Y-72853641D01*
X73469554Y-72433388D01*
X73148303Y-72111577D01*
X73033963Y-72064099D01*
X73146612Y-72017554D01*
X73468423Y-71696303D01*
X73526681Y-71556000D01*
X74509203Y-71556000D01*
X74281265Y-71650182D01*
X73941575Y-71989280D01*
X73757510Y-72432559D01*
X73757091Y-72912535D01*
X73940382Y-73356135D01*
X74279480Y-73695825D01*
X74722759Y-73879890D01*
X75202735Y-73880309D01*
X75646335Y-73697018D01*
X75986025Y-73357920D01*
X76170090Y-72914641D01*
X76170509Y-72434665D01*
X75987218Y-71991065D01*
X75648120Y-71651375D01*
X75418430Y-71556000D01*
X83237579Y-71556000D01*
X83526859Y-71845280D01*
X83526783Y-71933301D01*
X83629041Y-72180783D01*
X83818222Y-72370294D01*
X83914062Y-72410090D01*
X83892000Y-72521006D01*
X83892000Y-72756036D01*
X83829706Y-72818222D01*
X83727017Y-73065525D01*
X83726783Y-73333301D01*
X83829041Y-73580783D01*
X84018222Y-73770294D01*
X84265525Y-73872983D01*
X84533301Y-73873217D01*
X84780783Y-73770959D01*
X84845603Y-73706250D01*
X84877007Y-73782252D01*
X85215964Y-74121801D01*
X85659059Y-74305790D01*
X86138836Y-74306209D01*
X86582252Y-74122993D01*
X86921801Y-73784036D01*
X87105790Y-73340941D01*
X87106209Y-72861164D01*
X86922993Y-72417748D01*
X86584036Y-72078199D01*
X86140941Y-71894210D01*
X85745561Y-71893864D01*
X88559210Y-69080216D01*
X88559211Y-69080216D01*
X88669331Y-68915409D01*
X88708000Y-68721006D01*
X88708000Y-62443963D01*
X88770294Y-62381778D01*
X88872983Y-62134475D01*
X88873217Y-61866699D01*
X88873217Y-79726788D01*
X88866699Y-79726783D01*
X88619217Y-79829041D01*
X88459714Y-79988265D01*
X88381107Y-80040790D01*
X87054696Y-81367201D01*
X86937096Y-81367201D01*
X87105790Y-80960941D01*
X87106209Y-80481164D01*
X87106209Y-77941164D01*
X87106209Y-75401164D01*
X86922993Y-74957748D01*
X86584036Y-74618199D01*
X86140941Y-74434210D01*
X85661164Y-74433791D01*
X85217748Y-74617007D01*
X84878199Y-74955964D01*
X84694210Y-75399059D01*
X84693791Y-75878836D01*
X84877007Y-76322252D01*
X85215964Y-76661801D01*
X85659059Y-76845790D01*
X86138836Y-76846209D01*
X86582252Y-76662993D01*
X86921801Y-76324036D01*
X87105790Y-75880941D01*
X87106209Y-75401164D01*
X87106209Y-77941164D01*
X86922993Y-77497748D01*
X86584036Y-77158199D01*
X86140941Y-76974210D01*
X85661164Y-76973791D01*
X85217748Y-77157007D01*
X84878199Y-77495964D01*
X84694210Y-77939059D01*
X84693791Y-78418836D01*
X84877007Y-78862252D01*
X85215964Y-79201801D01*
X85659059Y-79385790D01*
X86138836Y-79386209D01*
X86582252Y-79202993D01*
X86921801Y-78864036D01*
X87105790Y-78420941D01*
X87106209Y-77941164D01*
X87106209Y-80481164D01*
X86922993Y-80037748D01*
X86584036Y-79698199D01*
X86140941Y-79514210D01*
X85661164Y-79513791D01*
X85217748Y-79697007D01*
X84878199Y-80035964D01*
X84694210Y-80479059D01*
X84693791Y-80958836D01*
X84877007Y-81402252D01*
X85103121Y-81628760D01*
X83892590Y-82839292D01*
X83782469Y-83004099D01*
X83743800Y-83198502D01*
X83743800Y-89930794D01*
X83782469Y-90125197D01*
X83892590Y-90290004D01*
X86361796Y-92759211D01*
X86526603Y-92869331D01*
X86721006Y-92908000D01*
X86956036Y-92908000D01*
X87018222Y-92970294D01*
X87265525Y-93072983D01*
X87533301Y-93073217D01*
X87780783Y-92970959D01*
X87970294Y-92781778D01*
X88072983Y-92534475D01*
X88073036Y-92473164D01*
X88133301Y-92473217D01*
X88380783Y-92370959D01*
X88570294Y-92181778D01*
X88672983Y-91934475D01*
X88673036Y-91873164D01*
X88733301Y-91873217D01*
X88980783Y-91770959D01*
X89170294Y-91581778D01*
X89272983Y-91334475D01*
X89273036Y-91273164D01*
X89333301Y-91273217D01*
X89580783Y-91170959D01*
X89770294Y-90981778D01*
X89872983Y-90734475D01*
X89873217Y-90466699D01*
X89770959Y-90219217D01*
X89581778Y-90029706D01*
X89334475Y-89927017D01*
X89245359Y-89926939D01*
X88485699Y-89167279D01*
X88485699Y-88269269D01*
X88543622Y-88327294D01*
X88790925Y-88429983D01*
X89058701Y-88430217D01*
X89237937Y-88356157D01*
X90157259Y-89275480D01*
X90157183Y-89363501D01*
X90259441Y-89610983D01*
X90448622Y-89800494D01*
X90695925Y-89903183D01*
X90963701Y-89903417D01*
X91211183Y-89801159D01*
X91400694Y-89611978D01*
X91503383Y-89364675D01*
X91503617Y-89096899D01*
X91401359Y-88849417D01*
X91212178Y-88659906D01*
X90964875Y-88557217D01*
X90875759Y-88557139D01*
X89716410Y-87397790D01*
X89551603Y-87287669D01*
X89372377Y-87252018D01*
X89307178Y-87186706D01*
X89259513Y-87166913D01*
X89272983Y-87134475D01*
X89273060Y-87045359D01*
X91010420Y-85308000D01*
X92356036Y-85308000D01*
X92418222Y-85370294D01*
X92665525Y-85472983D01*
X92914301Y-85473200D01*
X92914301Y-91967279D01*
X91389580Y-93492000D01*
X86000000Y-93492000D01*
X85837849Y-93524253D01*
X85805596Y-93530669D01*
X85640789Y-93640790D01*
X84615066Y-94666513D01*
X84440941Y-94594210D01*
X83961164Y-94593791D01*
X83517748Y-94777007D01*
X83178199Y-95115964D01*
X82994210Y-95559059D01*
X82993791Y-96038836D01*
X83162524Y-96447201D01*
X83025621Y-96447201D01*
X82793486Y-96215066D01*
X82865790Y-96040941D01*
X82866209Y-95561164D01*
X82682993Y-95117748D01*
X82344036Y-94778199D01*
X81900941Y-94594210D01*
X81421164Y-94593791D01*
X80977748Y-94777007D01*
X80638199Y-95115964D01*
X80454210Y-95559059D01*
X80453791Y-96038836D01*
X80637007Y-96482252D01*
X80975964Y-96821801D01*
X81419059Y-97005790D01*
X81898836Y-97006209D01*
X82074999Y-96933419D01*
X82455991Y-97314411D01*
X82620798Y-97424532D01*
X82815201Y-97463201D01*
X87294497Y-97463201D01*
X87488900Y-97424532D01*
X87653707Y-97314411D01*
X88371336Y-96596781D01*
X88595964Y-96821801D01*
X89039059Y-97005790D01*
X89518836Y-97006209D01*
X89962252Y-96822993D01*
X90301801Y-96484036D01*
X90485790Y-96040941D01*
X90486209Y-95561164D01*
X90302993Y-95117748D01*
X90150719Y-94965209D01*
X90949217Y-94965209D01*
X90798199Y-95115964D01*
X90614210Y-95559059D01*
X90613791Y-96038836D01*
X90797007Y-96482252D01*
X91135964Y-96821801D01*
X91579059Y-97005790D01*
X92058836Y-97006209D01*
X92502252Y-96822993D01*
X92841801Y-96484036D01*
X93025790Y-96040941D01*
X93026209Y-95561164D01*
X92842993Y-95117748D01*
X92504036Y-94778199D01*
X92279887Y-94685124D01*
X94381511Y-92583501D01*
X94491632Y-92418694D01*
X94530301Y-92224291D01*
X94530301Y-94594148D01*
X94121164Y-94593791D01*
X93677748Y-94777007D01*
X93338199Y-95115964D01*
X93154210Y-95559059D01*
X93153791Y-96038836D01*
X93337007Y-96482252D01*
X93675964Y-96821801D01*
X94119059Y-97005790D01*
X94598836Y-97006209D01*
X94926837Y-96870681D01*
X94926783Y-96933301D01*
X95029041Y-97180783D01*
X95218222Y-97370294D01*
X95465525Y-97472983D01*
X95565461Y-97473070D01*
X95646555Y-97669330D01*
X95835736Y-97858841D01*
X95869834Y-97873000D01*
X80326209Y-97873000D01*
X80326209Y-95561164D01*
X80142993Y-95117748D01*
X79804036Y-94778199D01*
X79360941Y-94594210D01*
X78881164Y-94593791D01*
X78437748Y-94777007D01*
X78098199Y-95115964D01*
X77914210Y-95559059D01*
X77913791Y-96038836D01*
X78097007Y-96482252D01*
X78435964Y-96821801D01*
X78879059Y-97005790D01*
X79358836Y-97006209D01*
X79802252Y-96822993D01*
X80141801Y-96484036D01*
X80325790Y-96040941D01*
X80326209Y-95561164D01*
X80326209Y-97873000D01*
X77786209Y-97873000D01*
X77786209Y-95561164D01*
X77602993Y-95117748D01*
X77264036Y-94778199D01*
X76820941Y-94594210D01*
X76341164Y-94593791D01*
X76176740Y-94661729D01*
X76176740Y-75008631D01*
X76005972Y-74560061D01*
X75966413Y-74500857D01*
X75775216Y-74420144D01*
X75757256Y-74438104D01*
X75757256Y-74402184D01*
X75676543Y-74210987D01*
X75238605Y-74014551D01*
X74758831Y-74000660D01*
X74310261Y-74171428D01*
X74251057Y-74210987D01*
X74170344Y-74402184D01*
X74963800Y-75195639D01*
X75757256Y-74402184D01*
X75757256Y-74438104D01*
X74981761Y-75213600D01*
X75775216Y-76007056D01*
X75966413Y-75926343D01*
X76162849Y-75488405D01*
X76176740Y-75008631D01*
X76176740Y-94661729D01*
X75897748Y-94777007D01*
X75757256Y-94917254D01*
X75757256Y-76025016D01*
X74963800Y-75231561D01*
X74945839Y-75249521D01*
X74945839Y-75213600D01*
X74152384Y-74420144D01*
X73961187Y-74500857D01*
X73764751Y-74938795D01*
X73750860Y-75418569D01*
X73921628Y-75867139D01*
X73961187Y-75926343D01*
X74152384Y-76007056D01*
X74945839Y-75213600D01*
X74945839Y-75249521D01*
X74170344Y-76025016D01*
X74251057Y-76216213D01*
X74688995Y-76412649D01*
X75168769Y-76426540D01*
X75617339Y-76255772D01*
X75676543Y-76216213D01*
X75757256Y-76025016D01*
X75757256Y-94917254D01*
X75558199Y-95115964D01*
X75374210Y-95559059D01*
X75373791Y-96038836D01*
X75557007Y-96482252D01*
X75895964Y-96821801D01*
X76339059Y-97005790D01*
X76818836Y-97006209D01*
X77262252Y-96822993D01*
X77601801Y-96484036D01*
X77785790Y-96040941D01*
X77786209Y-95561164D01*
X77786209Y-97873000D01*
X75252436Y-97873000D01*
X75252436Y-95595111D01*
X75081737Y-95146728D01*
X75042200Y-95087557D01*
X74851056Y-95006905D01*
X74833095Y-95024866D01*
X74833095Y-94988944D01*
X74752443Y-94797800D01*
X74314686Y-94601448D01*
X74073217Y-94594457D01*
X74073217Y-91466699D01*
X73971500Y-91220526D01*
X73971500Y-88400000D01*
X73927997Y-88181297D01*
X73927997Y-88181296D01*
X73804112Y-87995888D01*
X73804108Y-87995885D01*
X70872015Y-85063791D01*
X70770959Y-84819217D01*
X70581778Y-84629706D01*
X70334475Y-84527017D01*
X70066699Y-84526783D01*
X69819217Y-84629041D01*
X69629706Y-84818222D01*
X69527017Y-85065525D01*
X69526783Y-85333301D01*
X69629041Y-85580783D01*
X69818222Y-85770294D01*
X70064215Y-85872439D01*
X72828500Y-88636723D01*
X72828500Y-91221126D01*
X72727017Y-91465525D01*
X72726783Y-91733301D01*
X72829041Y-91980783D01*
X73018222Y-92170294D01*
X73265525Y-92272983D01*
X73533301Y-92273217D01*
X73780783Y-92170959D01*
X73970294Y-91981778D01*
X74072983Y-91734475D01*
X74073217Y-91466699D01*
X74073217Y-94594457D01*
X73835111Y-94587564D01*
X73386728Y-94758263D01*
X73327557Y-94797800D01*
X73246905Y-94988944D01*
X74040000Y-95782039D01*
X74833095Y-94988944D01*
X74833095Y-95024866D01*
X74057961Y-95800000D01*
X74851056Y-96593095D01*
X75042200Y-96512443D01*
X75238552Y-96074686D01*
X75252436Y-95595111D01*
X75252436Y-97873000D01*
X74833095Y-97873000D01*
X74833095Y-96611056D01*
X74040000Y-95817961D01*
X74022039Y-95835922D01*
X74022039Y-95800000D01*
X73228944Y-95006905D01*
X73037800Y-95087557D01*
X72841448Y-95525314D01*
X72827564Y-96004889D01*
X72998263Y-96453272D01*
X73037800Y-96512443D01*
X73228944Y-96593095D01*
X74022039Y-95800000D01*
X74022039Y-95835922D01*
X73246905Y-96611056D01*
X73327557Y-96802200D01*
X73765314Y-96998552D01*
X74244889Y-97012436D01*
X74693272Y-96841737D01*
X74752443Y-96802200D01*
X74833095Y-96611056D01*
X74833095Y-97873000D01*
X72706000Y-97873000D01*
X72706000Y-96700785D01*
X72706000Y-96549214D01*
X72706000Y-94899214D01*
X72647996Y-94759180D01*
X72540819Y-94652004D01*
X72400785Y-94594000D01*
X72249214Y-94594000D01*
X70599214Y-94594000D01*
X70459180Y-94652004D01*
X70352004Y-94759181D01*
X70294000Y-94899215D01*
X70294000Y-95050786D01*
X70294000Y-96700786D01*
X70352004Y-96840820D01*
X70459181Y-96947996D01*
X70599215Y-97006000D01*
X70750786Y-97006000D01*
X72400786Y-97006000D01*
X72540820Y-96947996D01*
X72647996Y-96840819D01*
X72706000Y-96700785D01*
X72706000Y-97873000D01*
X63356352Y-97873000D01*
X63356352Y-73947584D01*
X63356352Y-61247584D01*
X63047650Y-60500468D01*
X62476538Y-59928359D01*
X61729963Y-59618354D01*
X60921584Y-59617648D01*
X60174468Y-59926350D01*
X59602359Y-60497462D01*
X59355709Y-61091461D01*
X59355709Y-59696565D01*
X59172418Y-59252965D01*
X58833320Y-58913275D01*
X58390041Y-58729210D01*
X57910065Y-58728791D01*
X57466465Y-58912082D01*
X57126775Y-59251180D01*
X56942710Y-59694459D01*
X56942291Y-60174435D01*
X57125582Y-60618035D01*
X57464680Y-60957725D01*
X57907959Y-61141790D01*
X58387935Y-61142209D01*
X58831535Y-60958918D01*
X59171225Y-60619820D01*
X59355290Y-60176541D01*
X59355709Y-59696565D01*
X59355709Y-61091461D01*
X59292354Y-61244037D01*
X59291648Y-62052416D01*
X59600350Y-62799532D01*
X60171462Y-63371641D01*
X60918037Y-63681646D01*
X61726416Y-63682352D01*
X62473532Y-63373650D01*
X63045641Y-62802538D01*
X63355646Y-62055963D01*
X63356352Y-61247584D01*
X63356352Y-73947584D01*
X63047650Y-73200468D01*
X62476538Y-72628359D01*
X61729963Y-72318354D01*
X60921584Y-72317648D01*
X60174468Y-72626350D01*
X59602359Y-73197462D01*
X59292354Y-73944037D01*
X59291648Y-74752416D01*
X59600350Y-75499532D01*
X60171462Y-76071641D01*
X60918037Y-76381646D01*
X61726416Y-76382352D01*
X62473532Y-76073650D01*
X63045641Y-75502538D01*
X63355646Y-74755963D01*
X63356352Y-73947584D01*
X63356352Y-97873000D01*
X59355709Y-97873000D01*
X59355709Y-75825565D01*
X59172418Y-75381965D01*
X58833320Y-75042275D01*
X58390041Y-74858210D01*
X57910065Y-74857791D01*
X57466465Y-75041082D01*
X57126775Y-75380180D01*
X56942710Y-75823459D01*
X56942291Y-76303435D01*
X57125582Y-76747035D01*
X57464680Y-77086725D01*
X57907959Y-77270790D01*
X58387935Y-77271209D01*
X58831535Y-77087918D01*
X59171225Y-76748820D01*
X59355290Y-76305541D01*
X59355709Y-75825565D01*
X59355709Y-97873000D01*
X55042179Y-97873000D01*
X55413680Y-97719499D01*
X56316330Y-96818424D01*
X56805442Y-95640511D01*
X56806555Y-94365085D01*
X56319499Y-93186320D01*
X55418424Y-92283670D01*
X54240511Y-91794558D01*
X52965085Y-91793445D01*
X51786320Y-92280501D01*
X50883670Y-93181576D01*
X50727000Y-93558879D01*
X50727000Y-56442179D01*
X50880501Y-56813680D01*
X51781576Y-57716330D01*
X52959489Y-58205442D01*
X54234915Y-58206555D01*
X55413680Y-57719499D01*
X56316330Y-56818424D01*
X56805442Y-55640511D01*
X56806555Y-54365085D01*
X56319499Y-53186320D01*
X55418424Y-52283670D01*
X55041120Y-52127000D01*
X130157820Y-52127000D01*
X129786320Y-52280501D01*
X128883670Y-53181576D01*
X128394558Y-54359489D01*
X128393445Y-55634915D01*
X128880501Y-56813680D01*
X129781576Y-57716330D01*
X130959489Y-58205442D01*
X132234915Y-58206555D01*
X133413680Y-57719499D01*
X134316330Y-56818424D01*
X134473000Y-56441120D01*
X134473000Y-93557820D01*
X134473000Y-93557820D01*
G37*
X134473000Y-93557820D02*
X134319499Y-93186320D01*
X133418424Y-92283670D01*
X132240511Y-91794558D01*
X130965085Y-91793445D01*
X129891199Y-92237165D01*
X129891199Y-78882056D01*
X129891199Y-76142056D01*
X129891199Y-73402056D01*
X129891199Y-70662056D01*
X129716339Y-70238863D01*
X129392840Y-69914799D01*
X129351352Y-69897571D01*
X129351352Y-62102781D01*
X129042802Y-61356034D01*
X128471971Y-60784206D01*
X127725763Y-60474353D01*
X126917781Y-60473648D01*
X126171034Y-60782198D01*
X125599206Y-61353029D01*
X125289353Y-62099237D01*
X125288648Y-62907219D01*
X125597198Y-63653966D01*
X126168029Y-64225794D01*
X126914237Y-64535647D01*
X127722219Y-64536352D01*
X128468966Y-64227802D01*
X129040794Y-63656971D01*
X129350647Y-62910763D01*
X129351352Y-62102781D01*
X129351352Y-69897571D01*
X128969952Y-69739201D01*
X128512056Y-69738801D01*
X128088863Y-69913661D01*
X127764799Y-70237160D01*
X127589201Y-70660048D01*
X127588801Y-71117944D01*
X127763661Y-71541137D01*
X128087160Y-71865201D01*
X128510048Y-72040799D01*
X128967944Y-72041199D01*
X129391137Y-71866339D01*
X129715201Y-71542840D01*
X129890799Y-71119952D01*
X129891199Y-70662056D01*
X129891199Y-73402056D01*
X129716339Y-72978863D01*
X129392840Y-72654799D01*
X128969952Y-72479201D01*
X128512056Y-72478801D01*
X128088863Y-72653661D01*
X127764799Y-72977160D01*
X127589201Y-73400048D01*
X127588801Y-73857944D01*
X127763661Y-74281137D01*
X128087160Y-74605201D01*
X128510048Y-74780799D01*
X128967944Y-74781199D01*
X129391137Y-74606339D01*
X129715201Y-74282840D01*
X129890799Y-73859952D01*
X129891199Y-73402056D01*
X129891199Y-76142056D01*
X129716339Y-75718863D01*
X129392840Y-75394799D01*
X128969952Y-75219201D01*
X128512056Y-75218801D01*
X128088863Y-75393661D01*
X127764799Y-75717160D01*
X127589201Y-76140048D01*
X127588801Y-76597944D01*
X127763661Y-77021137D01*
X128087160Y-77345201D01*
X128510048Y-77520799D01*
X128967944Y-77521199D01*
X129391137Y-77346339D01*
X129715201Y-77022840D01*
X129890799Y-76599952D01*
X129891199Y-76142056D01*
X129891199Y-78882056D01*
X129716339Y-78458863D01*
X129392840Y-78134799D01*
X128969952Y-77959201D01*
X128512056Y-77958801D01*
X128088863Y-78133661D01*
X127764799Y-78457160D01*
X127589201Y-78880048D01*
X127588801Y-79337944D01*
X127763661Y-79761137D01*
X128087160Y-80085201D01*
X128510048Y-80260799D01*
X128967944Y-80261199D01*
X129391137Y-80086339D01*
X129715201Y-79762840D01*
X129890799Y-79339952D01*
X129891199Y-78882056D01*
X129891199Y-92237165D01*
X129786320Y-92280501D01*
X129351352Y-92714710D01*
X129351352Y-87092781D01*
X129042802Y-86346034D01*
X128471971Y-85774206D01*
X127725763Y-85464353D01*
X127057046Y-85463769D01*
X127057046Y-80283884D01*
X127051199Y-80268548D01*
X127051199Y-77512056D01*
X127051199Y-74772056D01*
X127051199Y-72032056D01*
X127051199Y-69292056D01*
X126876339Y-68868863D01*
X126552840Y-68544799D01*
X126129952Y-68369201D01*
X125672056Y-68368801D01*
X125248863Y-68543661D01*
X124924799Y-68867160D01*
X124749201Y-69290048D01*
X124748801Y-69747944D01*
X124923661Y-70171137D01*
X125247160Y-70495201D01*
X125670048Y-70670799D01*
X126127944Y-70671199D01*
X126551137Y-70496339D01*
X126875201Y-70172840D01*
X127050799Y-69749952D01*
X127051199Y-69292056D01*
X127051199Y-72032056D01*
X126876339Y-71608863D01*
X126552840Y-71284799D01*
X126129952Y-71109201D01*
X125672056Y-71108801D01*
X125248863Y-71283661D01*
X124924799Y-71607160D01*
X124749201Y-72030048D01*
X124748801Y-72487944D01*
X124923661Y-72911137D01*
X125247160Y-73235201D01*
X125670048Y-73410799D01*
X126127944Y-73411199D01*
X126551137Y-73236339D01*
X126875201Y-72912840D01*
X127050799Y-72489952D01*
X127051199Y-72032056D01*
X127051199Y-74772056D01*
X126876339Y-74348863D01*
X126552840Y-74024799D01*
X126129952Y-73849201D01*
X125672056Y-73848801D01*
X125248863Y-74023661D01*
X124924799Y-74347160D01*
X124749201Y-74770048D01*
X124748801Y-75227944D01*
X124923661Y-75651137D01*
X125247160Y-75975201D01*
X125670048Y-76150799D01*
X126127944Y-76151199D01*
X126551137Y-75976339D01*
X126875201Y-75652840D01*
X127050799Y-75229952D01*
X127051199Y-74772056D01*
X127051199Y-77512056D01*
X126876339Y-77088863D01*
X126552840Y-76764799D01*
X126129952Y-76589201D01*
X125672056Y-76588801D01*
X125248863Y-76763661D01*
X124924799Y-77087160D01*
X124749201Y-77510048D01*
X124748801Y-77967944D01*
X124923661Y-78391137D01*
X125247160Y-78715201D01*
X125670048Y-78890799D01*
X126127944Y-78891199D01*
X126551137Y-78716339D01*
X126875201Y-78392840D01*
X127050799Y-77969952D01*
X127051199Y-77512056D01*
X127051199Y-80268548D01*
X126893921Y-79856031D01*
X126856830Y-79800520D01*
X126671400Y-79726561D01*
X126653439Y-79744522D01*
X126653439Y-79708600D01*
X126579480Y-79523170D01*
X126161595Y-79335978D01*
X125703884Y-79322954D01*
X125276031Y-79486079D01*
X125220520Y-79523170D01*
X125146561Y-79708600D01*
X125900000Y-80462039D01*
X126653439Y-79708600D01*
X126653439Y-79744522D01*
X125917961Y-80480000D01*
X126671400Y-81233439D01*
X126856830Y-81159480D01*
X127044022Y-80741595D01*
X127057046Y-80283884D01*
X127057046Y-85463769D01*
X126917781Y-85463648D01*
X126653439Y-85572872D01*
X126653439Y-81251400D01*
X125900000Y-80497961D01*
X125882039Y-80515922D01*
X125882039Y-80480000D01*
X125128600Y-79726561D01*
X124943170Y-79800520D01*
X124755978Y-80218405D01*
X124742954Y-80676116D01*
X124906079Y-81103969D01*
X124943170Y-81159480D01*
X125128600Y-81233439D01*
X125882039Y-80480000D01*
X125882039Y-80515922D01*
X125146561Y-81251400D01*
X125220520Y-81436830D01*
X125638405Y-81624022D01*
X126096116Y-81637046D01*
X126523969Y-81473921D01*
X126579480Y-81436830D01*
X126653439Y-81251400D01*
X126653439Y-85572872D01*
X126171034Y-85772198D01*
X125599206Y-86343029D01*
X125289353Y-87089237D01*
X125288648Y-87897219D01*
X125597198Y-88643966D01*
X126168029Y-89215794D01*
X126914237Y-89525647D01*
X127722219Y-89526352D01*
X128468966Y-89217802D01*
X129040794Y-88646971D01*
X129350647Y-87900763D01*
X129351352Y-87092781D01*
X129351352Y-92714710D01*
X128883670Y-93181576D01*
X128394558Y-94359489D01*
X128393445Y-95634915D01*
X128880501Y-96813680D01*
X129781576Y-97716330D01*
X130158879Y-97873000D01*
X121073217Y-97873000D01*
X121073217Y-71066699D01*
X120970959Y-70819217D01*
X120781778Y-70629706D01*
X120534475Y-70527017D01*
X120266699Y-70526783D01*
X120019217Y-70629041D01*
X119829706Y-70818222D01*
X119727017Y-71065525D01*
X119726783Y-71333301D01*
X119829041Y-71580783D01*
X120018222Y-71770294D01*
X120265525Y-71872983D01*
X120533301Y-71873217D01*
X120780783Y-71770959D01*
X120970294Y-71581778D01*
X121072983Y-71334475D01*
X121073217Y-71066699D01*
X121073217Y-97873000D01*
X116497217Y-97873000D01*
X116497217Y-66414699D01*
X116394959Y-66167217D01*
X116205778Y-65977706D01*
X115958475Y-65875017D01*
X115690699Y-65874783D01*
X115443217Y-65977041D01*
X115380148Y-66040000D01*
X114744209Y-66040000D01*
X114744209Y-61991164D01*
X114560993Y-61547748D01*
X114222036Y-61208199D01*
X113778941Y-61024210D01*
X113299164Y-61023791D01*
X112855748Y-61207007D01*
X112516199Y-61545964D01*
X112332210Y-61989059D01*
X112331791Y-62468836D01*
X112515007Y-62912252D01*
X112853964Y-63251801D01*
X113297059Y-63435790D01*
X113776836Y-63436209D01*
X114220252Y-63252993D01*
X114559801Y-62914036D01*
X114743790Y-62470941D01*
X114744209Y-61991164D01*
X114744209Y-66040000D01*
X111565694Y-66040000D01*
X111506000Y-65980306D01*
X111506000Y-65864992D01*
X111680252Y-65792993D01*
X112019801Y-65454036D01*
X112203790Y-65010941D01*
X112204209Y-64531164D01*
X112020993Y-64087748D01*
X111966739Y-64033400D01*
X112082980Y-64033400D01*
X112332000Y-64282420D01*
X112332000Y-65670786D01*
X112390004Y-65810820D01*
X112497181Y-65917996D01*
X112637215Y-65976000D01*
X112788786Y-65976000D01*
X114438786Y-65976000D01*
X114578820Y-65917996D01*
X114685996Y-65810819D01*
X114744000Y-65670785D01*
X114744000Y-65519214D01*
X114744000Y-63869214D01*
X114685996Y-63729180D01*
X114578819Y-63622004D01*
X114438785Y-63564000D01*
X114287214Y-63564000D01*
X113050420Y-63564000D01*
X112652610Y-63166190D01*
X112487803Y-63056069D01*
X112293400Y-63017400D01*
X111916256Y-63017400D01*
X112019801Y-62914036D01*
X112203790Y-62470941D01*
X112204209Y-61991164D01*
X112020993Y-61547748D01*
X111682036Y-61208199D01*
X111238941Y-61024210D01*
X110759164Y-61023791D01*
X110315748Y-61207007D01*
X109976199Y-61545964D01*
X109792210Y-61989059D01*
X109791791Y-62468836D01*
X109949612Y-62850792D01*
X109664000Y-62565180D01*
X109664000Y-61329214D01*
X109605996Y-61189180D01*
X109498819Y-61082004D01*
X109358785Y-61024000D01*
X109207214Y-61024000D01*
X107557214Y-61024000D01*
X107417180Y-61082004D01*
X107310004Y-61189181D01*
X107252000Y-61329215D01*
X107252000Y-61480786D01*
X107252000Y-63130786D01*
X107310004Y-63270820D01*
X107417181Y-63377996D01*
X107557215Y-63436000D01*
X107708786Y-63436000D01*
X109097980Y-63436000D01*
X109546590Y-63884610D01*
X109711396Y-63994731D01*
X109711397Y-63994731D01*
X109743649Y-64001146D01*
X109905800Y-64033400D01*
X110028854Y-64033400D01*
X109976199Y-64085964D01*
X109792210Y-64529059D01*
X109791791Y-65008836D01*
X109975007Y-65452252D01*
X110313964Y-65791801D01*
X110490000Y-65864897D01*
X110490000Y-66190726D01*
X110528669Y-66385129D01*
X110638790Y-66549936D01*
X110996064Y-66907210D01*
X111160871Y-67017331D01*
X111355274Y-67056000D01*
X115380036Y-67056000D01*
X115442222Y-67118294D01*
X115689525Y-67220983D01*
X115957301Y-67221217D01*
X116204783Y-67118959D01*
X116394294Y-66929778D01*
X116496983Y-66682475D01*
X116497217Y-66414699D01*
X116497217Y-97873000D01*
X112406209Y-97873000D01*
X112406209Y-95561164D01*
X112222993Y-95117748D01*
X111884036Y-94778199D01*
X111440941Y-94594210D01*
X110961164Y-94593791D01*
X110517748Y-94777007D01*
X110178199Y-95115964D01*
X109994210Y-95559059D01*
X109993791Y-96038836D01*
X110177007Y-96482252D01*
X110515964Y-96821801D01*
X110959059Y-97005790D01*
X111438836Y-97006209D01*
X111882252Y-96822993D01*
X112221801Y-96484036D01*
X112405790Y-96040941D01*
X112406209Y-95561164D01*
X112406209Y-97873000D01*
X109866209Y-97873000D01*
X109866209Y-95561164D01*
X109682993Y-95117748D01*
X109664209Y-95098931D01*
X109664209Y-64531164D01*
X109480993Y-64087748D01*
X109142036Y-63748199D01*
X108698941Y-63564210D01*
X108219164Y-63563791D01*
X107775748Y-63747007D01*
X107436199Y-64085964D01*
X107252210Y-64529059D01*
X107251791Y-65008836D01*
X107435007Y-65452252D01*
X107773964Y-65791801D01*
X108217059Y-65975790D01*
X108696836Y-65976209D01*
X109140252Y-65792993D01*
X109479801Y-65454036D01*
X109663790Y-65010941D01*
X109664209Y-64531164D01*
X109664209Y-95098931D01*
X109344036Y-94778199D01*
X108900941Y-94594210D01*
X108421164Y-94593791D01*
X107977748Y-94777007D01*
X107638199Y-95115964D01*
X107454210Y-95559059D01*
X107453791Y-96038836D01*
X107637007Y-96482252D01*
X107975964Y-96821801D01*
X108419059Y-97005790D01*
X108898836Y-97006209D01*
X109342252Y-96822993D01*
X109681801Y-96484036D01*
X109865790Y-96040941D01*
X109866209Y-95561164D01*
X109866209Y-97873000D01*
X107326209Y-97873000D01*
X107326209Y-95561164D01*
X107142993Y-95117748D01*
X106804036Y-94778199D01*
X106360941Y-94594210D01*
X105881164Y-94593791D01*
X105506209Y-94748719D01*
X105506209Y-75861164D01*
X105506209Y-73321164D01*
X105506209Y-70781164D01*
X105506209Y-68241164D01*
X105506209Y-65701164D01*
X105506000Y-65700658D01*
X105506000Y-64300786D01*
X105506000Y-63507950D01*
X105506000Y-63292050D01*
X105506000Y-62499214D01*
X105447996Y-62359180D01*
X105340819Y-62252004D01*
X105200785Y-62194000D01*
X105049214Y-62194000D01*
X104407950Y-62194000D01*
X104312700Y-62289250D01*
X104312700Y-63387300D01*
X105410750Y-63387300D01*
X105506000Y-63292050D01*
X105506000Y-63507950D01*
X105410750Y-63412700D01*
X104312700Y-63412700D01*
X104312700Y-64510750D01*
X104407950Y-64606000D01*
X105049214Y-64606000D01*
X105200785Y-64606000D01*
X105340819Y-64547996D01*
X105447996Y-64440820D01*
X105506000Y-64300786D01*
X105506000Y-65700658D01*
X105322993Y-65257748D01*
X104984036Y-64918199D01*
X104540941Y-64734210D01*
X104287300Y-64733988D01*
X104287300Y-64510750D01*
X104287300Y-63412700D01*
X104287300Y-63387300D01*
X104287300Y-62289250D01*
X104192050Y-62194000D01*
X103550786Y-62194000D01*
X103399215Y-62194000D01*
X103259181Y-62252004D01*
X103152004Y-62359180D01*
X103094000Y-62499214D01*
X103094000Y-63292050D01*
X103189250Y-63387300D01*
X104287300Y-63387300D01*
X104287300Y-63412700D01*
X103189250Y-63412700D01*
X103094000Y-63507950D01*
X103094000Y-64300786D01*
X103152004Y-64440820D01*
X103259181Y-64547996D01*
X103399215Y-64606000D01*
X103550786Y-64606000D01*
X104192050Y-64606000D01*
X104287300Y-64510750D01*
X104287300Y-64733988D01*
X104061164Y-64733791D01*
X103617748Y-64917007D01*
X103278199Y-65255964D01*
X103094210Y-65699059D01*
X103093791Y-66178836D01*
X103277007Y-66622252D01*
X103615964Y-66961801D01*
X104059059Y-67145790D01*
X104538836Y-67146209D01*
X104982252Y-66962993D01*
X105321801Y-66624036D01*
X105505790Y-66180941D01*
X105506209Y-65701164D01*
X105506209Y-68241164D01*
X105322993Y-67797748D01*
X104984036Y-67458199D01*
X104540941Y-67274210D01*
X104061164Y-67273791D01*
X103617748Y-67457007D01*
X103278199Y-67795964D01*
X103094210Y-68239059D01*
X103093791Y-68718836D01*
X103277007Y-69162252D01*
X103615964Y-69501801D01*
X104059059Y-69685790D01*
X104538836Y-69686209D01*
X104982252Y-69502993D01*
X105321801Y-69164036D01*
X105505790Y-68720941D01*
X105506209Y-68241164D01*
X105506209Y-70781164D01*
X105322993Y-70337748D01*
X104984036Y-69998199D01*
X104540941Y-69814210D01*
X104061164Y-69813791D01*
X103617748Y-69997007D01*
X103278199Y-70335964D01*
X103094210Y-70779059D01*
X103093791Y-71258836D01*
X103277007Y-71702252D01*
X103615964Y-72041801D01*
X104059059Y-72225790D01*
X104538836Y-72226209D01*
X104982252Y-72042993D01*
X105321801Y-71704036D01*
X105505790Y-71260941D01*
X105506209Y-70781164D01*
X105506209Y-73321164D01*
X105322993Y-72877748D01*
X104984036Y-72538199D01*
X104540941Y-72354210D01*
X104061164Y-72353791D01*
X103617748Y-72537007D01*
X103278199Y-72875964D01*
X103094210Y-73319059D01*
X103093791Y-73798836D01*
X103277007Y-74242252D01*
X103615964Y-74581801D01*
X104059059Y-74765790D01*
X104538836Y-74766209D01*
X104982252Y-74582993D01*
X105321801Y-74244036D01*
X105505790Y-73800941D01*
X105506209Y-73321164D01*
X105506209Y-75861164D01*
X105322993Y-75417748D01*
X104984036Y-75078199D01*
X104540941Y-74894210D01*
X104061164Y-74893791D01*
X103617748Y-75077007D01*
X103278199Y-75415964D01*
X103094210Y-75859059D01*
X103093791Y-76338836D01*
X103277007Y-76782252D01*
X103615964Y-77121801D01*
X104059059Y-77305790D01*
X104538836Y-77306209D01*
X104982252Y-77122993D01*
X105321801Y-76784036D01*
X105505790Y-76340941D01*
X105506209Y-75861164D01*
X105506209Y-94748719D01*
X105437748Y-94777007D01*
X105098199Y-95115964D01*
X104914210Y-95559059D01*
X104913791Y-96038836D01*
X105097007Y-96482252D01*
X105435964Y-96821801D01*
X105879059Y-97005790D01*
X106358836Y-97006209D01*
X106802252Y-96822993D01*
X107141801Y-96484036D01*
X107325790Y-96040941D01*
X107326209Y-95561164D01*
X107326209Y-97873000D01*
X104873217Y-97873000D01*
X104873217Y-88666699D01*
X104770959Y-88419217D01*
X104708000Y-88356148D01*
X104708000Y-87000000D01*
X104675746Y-86837849D01*
X104669331Y-86805597D01*
X104669331Y-86805596D01*
X104559210Y-86640790D01*
X102273140Y-84354720D01*
X102273217Y-84266699D01*
X102170959Y-84019217D01*
X101981778Y-83829706D01*
X101734475Y-83727017D01*
X101466699Y-83726783D01*
X101219217Y-83829041D01*
X101029706Y-84018222D01*
X100927017Y-84265525D01*
X100926783Y-84533301D01*
X101029041Y-84780783D01*
X101218222Y-84970294D01*
X101465525Y-85072983D01*
X101554640Y-85073060D01*
X103692000Y-87210420D01*
X103692000Y-88356036D01*
X103629706Y-88418222D01*
X103527017Y-88665525D01*
X103526783Y-88933301D01*
X103629041Y-89180783D01*
X103818222Y-89370294D01*
X104065525Y-89472983D01*
X104333301Y-89473217D01*
X104580783Y-89370959D01*
X104770294Y-89181778D01*
X104872983Y-88934475D01*
X104873217Y-88666699D01*
X104873217Y-97873000D01*
X104792436Y-97873000D01*
X104792436Y-95595111D01*
X104621737Y-95146728D01*
X104582200Y-95087557D01*
X104391056Y-95006905D01*
X104373095Y-95024866D01*
X104373095Y-94988944D01*
X104292443Y-94797800D01*
X103854686Y-94601448D01*
X103375111Y-94587564D01*
X102926728Y-94758263D01*
X102867557Y-94797800D01*
X102786905Y-94988944D01*
X103580000Y-95782039D01*
X104373095Y-94988944D01*
X104373095Y-95024866D01*
X103597961Y-95800000D01*
X104391056Y-96593095D01*
X104582200Y-96512443D01*
X104778552Y-96074686D01*
X104792436Y-95595111D01*
X104792436Y-97873000D01*
X104373095Y-97873000D01*
X104373095Y-96611056D01*
X103580000Y-95817961D01*
X103562039Y-95835922D01*
X103562039Y-95800000D01*
X102768944Y-95006905D01*
X102577800Y-95087557D01*
X102381448Y-95525314D01*
X102367564Y-96004889D01*
X102538263Y-96453272D01*
X102577800Y-96512443D01*
X102768944Y-96593095D01*
X103562039Y-95800000D01*
X103562039Y-95835922D01*
X102786905Y-96611056D01*
X102867557Y-96802200D01*
X103305314Y-96998552D01*
X103784889Y-97012436D01*
X104233272Y-96841737D01*
X104292443Y-96802200D01*
X104373095Y-96611056D01*
X104373095Y-97873000D01*
X102246209Y-97873000D01*
X102246209Y-95561164D01*
X102062993Y-95117748D01*
X101724036Y-94778199D01*
X101280941Y-94594210D01*
X100801164Y-94593791D01*
X100357748Y-94777007D01*
X100018199Y-95115964D01*
X99834210Y-95559059D01*
X99833791Y-96038836D01*
X100017007Y-96482252D01*
X100355964Y-96821801D01*
X100799059Y-97005790D01*
X101278836Y-97006209D01*
X101722252Y-96822993D01*
X102061801Y-96484036D01*
X102245790Y-96040941D01*
X102246209Y-95561164D01*
X102246209Y-97873000D01*
X99706000Y-97873000D01*
X99706000Y-96700785D01*
X99706000Y-96549214D01*
X99706000Y-94899214D01*
X99647996Y-94759180D01*
X99540819Y-94652004D01*
X99400785Y-94594000D01*
X99249214Y-94594000D01*
X98328383Y-94594000D01*
X98328383Y-74503476D01*
X98226125Y-74255994D01*
X98163166Y-74192925D01*
X98163166Y-61134160D01*
X98124497Y-60939757D01*
X98014376Y-60774950D01*
X95680216Y-58440790D01*
X95515409Y-58330669D01*
X95321006Y-58292000D01*
X94043963Y-58292000D01*
X93981778Y-58229706D01*
X93734475Y-58127017D01*
X93466699Y-58126783D01*
X93219217Y-58229041D01*
X93029706Y-58418222D01*
X92927017Y-58665525D01*
X92926783Y-58933301D01*
X93029041Y-59180783D01*
X93218222Y-59370294D01*
X93465525Y-59472983D01*
X93733301Y-59473217D01*
X93980783Y-59370959D01*
X94043851Y-59308000D01*
X94392426Y-59308000D01*
X94327017Y-59465525D01*
X94326783Y-59733301D01*
X94429041Y-59980783D01*
X94548092Y-60100041D01*
X94430984Y-60216945D01*
X94248158Y-60141029D01*
X94073152Y-60140876D01*
X94073217Y-60066699D01*
X93970959Y-59819217D01*
X93781778Y-59629706D01*
X93534475Y-59527017D01*
X93266699Y-59526783D01*
X93019217Y-59629041D01*
X92829706Y-59818222D01*
X92769301Y-59963692D01*
X92611541Y-59963555D01*
X92364059Y-60065813D01*
X92174548Y-60254994D01*
X92071859Y-60502297D01*
X92071625Y-60770073D01*
X92173883Y-61017555D01*
X92244483Y-61088278D01*
X92275511Y-61244266D01*
X92385632Y-61409073D01*
X92468701Y-61492142D01*
X92468701Y-73776701D01*
X92507370Y-73971104D01*
X92617491Y-74135911D01*
X94326859Y-75845280D01*
X94326783Y-75933301D01*
X94429041Y-76180783D01*
X94618222Y-76370294D01*
X94865525Y-76472983D01*
X95133301Y-76473217D01*
X95380783Y-76370959D01*
X95570294Y-76181778D01*
X95672983Y-75934475D01*
X95673036Y-75873164D01*
X95733301Y-75873217D01*
X95980783Y-75770959D01*
X96170294Y-75581778D01*
X96272983Y-75334475D01*
X96273217Y-75066699D01*
X96170959Y-74819217D01*
X96139721Y-74787925D01*
X96180783Y-74770959D01*
X96300041Y-74651907D01*
X96418222Y-74770294D01*
X96665525Y-74872983D01*
X96933301Y-74873217D01*
X97011256Y-74841006D01*
X97084207Y-75017560D01*
X97273388Y-75207071D01*
X97520691Y-75309760D01*
X97788467Y-75309994D01*
X98035949Y-75207736D01*
X98225460Y-75018555D01*
X98328149Y-74771252D01*
X98328383Y-74503476D01*
X98328383Y-94594000D01*
X97599214Y-94594000D01*
X97459180Y-94652004D01*
X97352004Y-94759181D01*
X97294000Y-94899215D01*
X97294000Y-95050786D01*
X97294000Y-96700786D01*
X97352004Y-96840820D01*
X97459181Y-96947996D01*
X97599215Y-97006000D01*
X97750786Y-97006000D01*
X99400786Y-97006000D01*
X99540820Y-96947996D01*
X99647996Y-96840819D01*
X99706000Y-96700785D01*
X99706000Y-97873000D01*
X96565639Y-97873000D01*
X96598297Y-97859506D01*
X96787808Y-97670325D01*
X96890497Y-97423022D01*
X96890574Y-97333906D01*
X96959210Y-97265271D01*
X97069331Y-97100464D01*
X97108000Y-96906061D01*
X97108000Y-92843963D01*
X97170294Y-92781778D01*
X97272983Y-92534475D01*
X97273217Y-92266699D01*
X97170959Y-92019217D01*
X96981778Y-91829706D01*
X96916019Y-91802400D01*
X97245279Y-91473140D01*
X97333301Y-91473217D01*
X97580783Y-91370959D01*
X97770294Y-91181778D01*
X97872983Y-90934475D01*
X97873217Y-90666699D01*
X97770959Y-90419217D01*
X97581778Y-90229706D01*
X97334475Y-90127017D01*
X97066699Y-90126783D01*
X96819217Y-90229041D01*
X96629706Y-90418222D01*
X96527017Y-90665525D01*
X96526939Y-90754640D01*
X95532889Y-91748691D01*
X95422768Y-91913498D01*
X95384099Y-92107901D01*
X95384099Y-95120424D01*
X95382993Y-95117748D01*
X95044036Y-94778199D01*
X94600941Y-94594210D01*
X94530301Y-94594148D01*
X94530301Y-92224291D01*
X94530301Y-78222301D01*
X94491632Y-78027898D01*
X94381511Y-77863091D01*
X94273140Y-77754720D01*
X94273217Y-77666699D01*
X94170959Y-77419217D01*
X93981778Y-77229706D01*
X93734475Y-77127017D01*
X93466699Y-77126783D01*
X93219217Y-77229041D01*
X93029706Y-77418222D01*
X92927017Y-77665525D01*
X92926783Y-77933301D01*
X92981782Y-78066410D01*
X92829706Y-78218222D01*
X92727017Y-78465525D01*
X92726783Y-78733301D01*
X92829041Y-78980783D01*
X92914301Y-79066191D01*
X92914301Y-84126999D01*
X92666699Y-84126783D01*
X92419217Y-84229041D01*
X92356148Y-84292000D01*
X90800000Y-84292000D01*
X90605597Y-84330669D01*
X90440790Y-84440790D01*
X88554720Y-86326859D01*
X88485699Y-86326799D01*
X88485699Y-83832721D01*
X88845279Y-83473140D01*
X88933301Y-83473217D01*
X89180783Y-83370959D01*
X89370294Y-83181778D01*
X89472983Y-82934475D01*
X89473217Y-82666699D01*
X89418217Y-82533589D01*
X89570294Y-82381778D01*
X89672983Y-82134475D01*
X89673217Y-81866699D01*
X89570959Y-81619217D01*
X89551907Y-81600132D01*
X89570294Y-81581778D01*
X89672983Y-81334475D01*
X89673217Y-81066699D01*
X89570959Y-80819217D01*
X89551907Y-80800132D01*
X89570294Y-80781778D01*
X89672983Y-80534475D01*
X89673217Y-80266699D01*
X89570959Y-80019217D01*
X89381778Y-79829706D01*
X89134475Y-79727017D01*
X88873217Y-79726788D01*
X88873217Y-61866699D01*
X88770959Y-61619217D01*
X88581778Y-61429706D01*
X88334475Y-61327017D01*
X88066699Y-61326783D01*
X87819217Y-61429041D01*
X87629706Y-61618222D01*
X87527017Y-61865525D01*
X87526783Y-62133301D01*
X87629041Y-62380783D01*
X87692000Y-62443851D01*
X87692000Y-68510585D01*
X84873217Y-71329368D01*
X84873217Y-62466699D01*
X84770959Y-62219217D01*
X84708000Y-62156148D01*
X84708000Y-61443963D01*
X84770294Y-61381778D01*
X84872983Y-61134475D01*
X84873217Y-60866699D01*
X84770959Y-60619217D01*
X84581778Y-60429706D01*
X84334475Y-60327017D01*
X84066699Y-60326783D01*
X83819217Y-60429041D01*
X83629706Y-60618222D01*
X83527017Y-60865525D01*
X83526783Y-61133301D01*
X83629041Y-61380783D01*
X83692000Y-61443851D01*
X83692000Y-62156036D01*
X83629706Y-62218222D01*
X83527017Y-62465525D01*
X83526783Y-62733301D01*
X83629041Y-62980783D01*
X83818222Y-63170294D01*
X84065525Y-63272983D01*
X84333301Y-63273217D01*
X84580783Y-63170959D01*
X84770294Y-62981778D01*
X84872983Y-62734475D01*
X84873217Y-62466699D01*
X84873217Y-71329368D01*
X84774587Y-71427998D01*
X84770959Y-71419217D01*
X84581778Y-71229706D01*
X84334475Y-71127017D01*
X84245359Y-71126939D01*
X83807210Y-70688790D01*
X83642403Y-70578669D01*
X83448000Y-70540000D01*
X73526826Y-70540000D01*
X73469554Y-70401388D01*
X73148303Y-70079577D01*
X73033963Y-70032099D01*
X73146612Y-69985554D01*
X73468423Y-69664303D01*
X73642801Y-69244354D01*
X73643198Y-68789641D01*
X73469554Y-68369388D01*
X73148303Y-68047577D01*
X73033963Y-68000099D01*
X73146612Y-67953554D01*
X73468423Y-67632303D01*
X73642801Y-67212354D01*
X73643198Y-66757641D01*
X73469554Y-66337388D01*
X73148303Y-66015577D01*
X73033963Y-65968099D01*
X73146612Y-65921554D01*
X73468423Y-65600303D01*
X73526681Y-65460000D01*
X82825690Y-65460000D01*
X83020093Y-65421331D01*
X83184900Y-65311210D01*
X83622970Y-64873140D01*
X83710991Y-64873217D01*
X83958473Y-64770959D01*
X84147984Y-64581778D01*
X84250673Y-64334475D01*
X84250907Y-64066699D01*
X84148649Y-63819217D01*
X83959468Y-63629706D01*
X83712165Y-63527017D01*
X83444389Y-63526783D01*
X83196907Y-63629041D01*
X83007396Y-63818222D01*
X82904707Y-64065525D01*
X82904629Y-64154640D01*
X82615269Y-64444000D01*
X76176740Y-64444000D01*
X76176740Y-63121431D01*
X76170509Y-63105063D01*
X76170509Y-60547465D01*
X75987218Y-60103865D01*
X75648120Y-59764175D01*
X75204841Y-59580110D01*
X74724865Y-59579691D01*
X74281265Y-59762982D01*
X73941575Y-60102080D01*
X73757510Y-60545359D01*
X73757091Y-61025335D01*
X73940382Y-61468935D01*
X74279480Y-61808625D01*
X74722759Y-61992690D01*
X75202735Y-61993109D01*
X75646335Y-61809818D01*
X75986025Y-61470720D01*
X76170090Y-61027441D01*
X76170509Y-60547465D01*
X76170509Y-63105063D01*
X76005972Y-62672861D01*
X75966413Y-62613657D01*
X75775216Y-62532944D01*
X75757256Y-62550904D01*
X75757256Y-62514984D01*
X75676543Y-62323787D01*
X75238605Y-62127351D01*
X74758831Y-62113460D01*
X74310261Y-62284228D01*
X74251057Y-62323787D01*
X74170344Y-62514984D01*
X74963800Y-63308439D01*
X75757256Y-62514984D01*
X75757256Y-62550904D01*
X74981761Y-63326400D01*
X75775216Y-64119856D01*
X75966413Y-64039143D01*
X76162849Y-63601205D01*
X76176740Y-63121431D01*
X76176740Y-64444000D01*
X75419206Y-64444000D01*
X75617339Y-64368572D01*
X75676543Y-64329013D01*
X75757256Y-64137816D01*
X74963800Y-63344361D01*
X74945839Y-63362321D01*
X74945839Y-63326400D01*
X74152384Y-62532944D01*
X73961187Y-62613657D01*
X73764751Y-63051595D01*
X73750860Y-63531369D01*
X73921628Y-63979939D01*
X73961187Y-64039143D01*
X74152384Y-64119856D01*
X74945839Y-63326400D01*
X74945839Y-63362321D01*
X74170344Y-64137816D01*
X74251057Y-64329013D01*
X74507411Y-64444000D01*
X73526826Y-64444000D01*
X73469554Y-64305388D01*
X73148303Y-63983577D01*
X73033963Y-63936099D01*
X73146612Y-63889554D01*
X73468423Y-63568303D01*
X73642801Y-63148354D01*
X73643198Y-62693641D01*
X73469554Y-62273388D01*
X73148303Y-61951577D01*
X72728354Y-61777199D01*
X72273641Y-61776802D01*
X71853388Y-61950446D01*
X71531577Y-62271697D01*
X71357199Y-62691646D01*
X71356802Y-63146359D01*
X71530446Y-63566612D01*
X71851697Y-63888423D01*
X71966036Y-63935900D01*
X71853388Y-63982446D01*
X71531577Y-64303697D01*
X71357199Y-64723646D01*
X71356802Y-65178359D01*
X71530446Y-65598612D01*
X71851697Y-65920423D01*
X71966036Y-65967900D01*
X71853388Y-66014446D01*
X71531577Y-66335697D01*
X71357199Y-66755646D01*
X71356802Y-67210359D01*
X71530446Y-67630612D01*
X71851697Y-67952423D01*
X71966036Y-67999900D01*
X71853388Y-68046446D01*
X71531577Y-68367697D01*
X71357199Y-68787646D01*
X71356802Y-69242359D01*
X71530446Y-69662612D01*
X71851697Y-69984423D01*
X71966036Y-70031900D01*
X71853388Y-70078446D01*
X71531577Y-70399697D01*
X71357199Y-70819646D01*
X71356802Y-71274359D01*
X71530446Y-71694612D01*
X71851697Y-72016423D01*
X71966036Y-72063900D01*
X71853388Y-72110446D01*
X71531577Y-72431697D01*
X71357199Y-72851646D01*
X71356802Y-73306359D01*
X71530446Y-73726612D01*
X71851697Y-74048423D01*
X72271646Y-74222801D01*
X72726359Y-74223198D01*
X73146612Y-74049554D01*
X73468423Y-73728303D01*
X73642801Y-73308354D01*
X73643198Y-72853641D01*
X73469554Y-72433388D01*
X73148303Y-72111577D01*
X73033963Y-72064099D01*
X73146612Y-72017554D01*
X73468423Y-71696303D01*
X73526681Y-71556000D01*
X74509203Y-71556000D01*
X74281265Y-71650182D01*
X73941575Y-71989280D01*
X73757510Y-72432559D01*
X73757091Y-72912535D01*
X73940382Y-73356135D01*
X74279480Y-73695825D01*
X74722759Y-73879890D01*
X75202735Y-73880309D01*
X75646335Y-73697018D01*
X75986025Y-73357920D01*
X76170090Y-72914641D01*
X76170509Y-72434665D01*
X75987218Y-71991065D01*
X75648120Y-71651375D01*
X75418430Y-71556000D01*
X83237579Y-71556000D01*
X83526859Y-71845280D01*
X83526783Y-71933301D01*
X83629041Y-72180783D01*
X83818222Y-72370294D01*
X83914062Y-72410090D01*
X83892000Y-72521006D01*
X83892000Y-72756036D01*
X83829706Y-72818222D01*
X83727017Y-73065525D01*
X83726783Y-73333301D01*
X83829041Y-73580783D01*
X84018222Y-73770294D01*
X84265525Y-73872983D01*
X84533301Y-73873217D01*
X84780783Y-73770959D01*
X84845603Y-73706250D01*
X84877007Y-73782252D01*
X85215964Y-74121801D01*
X85659059Y-74305790D01*
X86138836Y-74306209D01*
X86582252Y-74122993D01*
X86921801Y-73784036D01*
X87105790Y-73340941D01*
X87106209Y-72861164D01*
X86922993Y-72417748D01*
X86584036Y-72078199D01*
X86140941Y-71894210D01*
X85745561Y-71893864D01*
X88559210Y-69080216D01*
X88559211Y-69080216D01*
X88669331Y-68915409D01*
X88708000Y-68721006D01*
X88708000Y-62443963D01*
X88770294Y-62381778D01*
X88872983Y-62134475D01*
X88873217Y-61866699D01*
X88873217Y-79726788D01*
X88866699Y-79726783D01*
X88619217Y-79829041D01*
X88459714Y-79988265D01*
X88381107Y-80040790D01*
X87054696Y-81367201D01*
X86937096Y-81367201D01*
X87105790Y-80960941D01*
X87106209Y-80481164D01*
X87106209Y-77941164D01*
X87106209Y-75401164D01*
X86922993Y-74957748D01*
X86584036Y-74618199D01*
X86140941Y-74434210D01*
X85661164Y-74433791D01*
X85217748Y-74617007D01*
X84878199Y-74955964D01*
X84694210Y-75399059D01*
X84693791Y-75878836D01*
X84877007Y-76322252D01*
X85215964Y-76661801D01*
X85659059Y-76845790D01*
X86138836Y-76846209D01*
X86582252Y-76662993D01*
X86921801Y-76324036D01*
X87105790Y-75880941D01*
X87106209Y-75401164D01*
X87106209Y-77941164D01*
X86922993Y-77497748D01*
X86584036Y-77158199D01*
X86140941Y-76974210D01*
X85661164Y-76973791D01*
X85217748Y-77157007D01*
X84878199Y-77495964D01*
X84694210Y-77939059D01*
X84693791Y-78418836D01*
X84877007Y-78862252D01*
X85215964Y-79201801D01*
X85659059Y-79385790D01*
X86138836Y-79386209D01*
X86582252Y-79202993D01*
X86921801Y-78864036D01*
X87105790Y-78420941D01*
X87106209Y-77941164D01*
X87106209Y-80481164D01*
X86922993Y-80037748D01*
X86584036Y-79698199D01*
X86140941Y-79514210D01*
X85661164Y-79513791D01*
X85217748Y-79697007D01*
X84878199Y-80035964D01*
X84694210Y-80479059D01*
X84693791Y-80958836D01*
X84877007Y-81402252D01*
X85103121Y-81628760D01*
X83892590Y-82839292D01*
X83782469Y-83004099D01*
X83743800Y-83198502D01*
X83743800Y-89930794D01*
X83782469Y-90125197D01*
X83892590Y-90290004D01*
X86361796Y-92759211D01*
X86526603Y-92869331D01*
X86721006Y-92908000D01*
X86956036Y-92908000D01*
X87018222Y-92970294D01*
X87265525Y-93072983D01*
X87533301Y-93073217D01*
X87780783Y-92970959D01*
X87970294Y-92781778D01*
X88072983Y-92534475D01*
X88073036Y-92473164D01*
X88133301Y-92473217D01*
X88380783Y-92370959D01*
X88570294Y-92181778D01*
X88672983Y-91934475D01*
X88673036Y-91873164D01*
X88733301Y-91873217D01*
X88980783Y-91770959D01*
X89170294Y-91581778D01*
X89272983Y-91334475D01*
X89273036Y-91273164D01*
X89333301Y-91273217D01*
X89580783Y-91170959D01*
X89770294Y-90981778D01*
X89872983Y-90734475D01*
X89873217Y-90466699D01*
X89770959Y-90219217D01*
X89581778Y-90029706D01*
X89334475Y-89927017D01*
X89245359Y-89926939D01*
X88485699Y-89167279D01*
X88485699Y-88269269D01*
X88543622Y-88327294D01*
X88790925Y-88429983D01*
X89058701Y-88430217D01*
X89237937Y-88356157D01*
X90157259Y-89275480D01*
X90157183Y-89363501D01*
X90259441Y-89610983D01*
X90448622Y-89800494D01*
X90695925Y-89903183D01*
X90963701Y-89903417D01*
X91211183Y-89801159D01*
X91400694Y-89611978D01*
X91503383Y-89364675D01*
X91503617Y-89096899D01*
X91401359Y-88849417D01*
X91212178Y-88659906D01*
X90964875Y-88557217D01*
X90875759Y-88557139D01*
X89716410Y-87397790D01*
X89551603Y-87287669D01*
X89372377Y-87252018D01*
X89307178Y-87186706D01*
X89259513Y-87166913D01*
X89272983Y-87134475D01*
X89273060Y-87045359D01*
X91010420Y-85308000D01*
X92356036Y-85308000D01*
X92418222Y-85370294D01*
X92665525Y-85472983D01*
X92914301Y-85473200D01*
X92914301Y-91967279D01*
X91389580Y-93492000D01*
X86000000Y-93492000D01*
X85837849Y-93524253D01*
X85805596Y-93530669D01*
X85640789Y-93640790D01*
X84615066Y-94666513D01*
X84440941Y-94594210D01*
X83961164Y-94593791D01*
X83517748Y-94777007D01*
X83178199Y-95115964D01*
X82994210Y-95559059D01*
X82993791Y-96038836D01*
X83162524Y-96447201D01*
X83025621Y-96447201D01*
X82793486Y-96215066D01*
X82865790Y-96040941D01*
X82866209Y-95561164D01*
X82682993Y-95117748D01*
X82344036Y-94778199D01*
X81900941Y-94594210D01*
X81421164Y-94593791D01*
X80977748Y-94777007D01*
X80638199Y-95115964D01*
X80454210Y-95559059D01*
X80453791Y-96038836D01*
X80637007Y-96482252D01*
X80975964Y-96821801D01*
X81419059Y-97005790D01*
X81898836Y-97006209D01*
X82074999Y-96933419D01*
X82455991Y-97314411D01*
X82620798Y-97424532D01*
X82815201Y-97463201D01*
X87294497Y-97463201D01*
X87488900Y-97424532D01*
X87653707Y-97314411D01*
X88371336Y-96596781D01*
X88595964Y-96821801D01*
X89039059Y-97005790D01*
X89518836Y-97006209D01*
X89962252Y-96822993D01*
X90301801Y-96484036D01*
X90485790Y-96040941D01*
X90486209Y-95561164D01*
X90302993Y-95117748D01*
X90150719Y-94965209D01*
X90949217Y-94965209D01*
X90798199Y-95115964D01*
X90614210Y-95559059D01*
X90613791Y-96038836D01*
X90797007Y-96482252D01*
X91135964Y-96821801D01*
X91579059Y-97005790D01*
X92058836Y-97006209D01*
X92502252Y-96822993D01*
X92841801Y-96484036D01*
X93025790Y-96040941D01*
X93026209Y-95561164D01*
X92842993Y-95117748D01*
X92504036Y-94778199D01*
X92279887Y-94685124D01*
X94381511Y-92583501D01*
X94491632Y-92418694D01*
X94530301Y-92224291D01*
X94530301Y-94594148D01*
X94121164Y-94593791D01*
X93677748Y-94777007D01*
X93338199Y-95115964D01*
X93154210Y-95559059D01*
X93153791Y-96038836D01*
X93337007Y-96482252D01*
X93675964Y-96821801D01*
X94119059Y-97005790D01*
X94598836Y-97006209D01*
X94926837Y-96870681D01*
X94926783Y-96933301D01*
X95029041Y-97180783D01*
X95218222Y-97370294D01*
X95465525Y-97472983D01*
X95565461Y-97473070D01*
X95646555Y-97669330D01*
X95835736Y-97858841D01*
X95869834Y-97873000D01*
X80326209Y-97873000D01*
X80326209Y-95561164D01*
X80142993Y-95117748D01*
X79804036Y-94778199D01*
X79360941Y-94594210D01*
X78881164Y-94593791D01*
X78437748Y-94777007D01*
X78098199Y-95115964D01*
X77914210Y-95559059D01*
X77913791Y-96038836D01*
X78097007Y-96482252D01*
X78435964Y-96821801D01*
X78879059Y-97005790D01*
X79358836Y-97006209D01*
X79802252Y-96822993D01*
X80141801Y-96484036D01*
X80325790Y-96040941D01*
X80326209Y-95561164D01*
X80326209Y-97873000D01*
X77786209Y-97873000D01*
X77786209Y-95561164D01*
X77602993Y-95117748D01*
X77264036Y-94778199D01*
X76820941Y-94594210D01*
X76341164Y-94593791D01*
X76176740Y-94661729D01*
X76176740Y-75008631D01*
X76005972Y-74560061D01*
X75966413Y-74500857D01*
X75775216Y-74420144D01*
X75757256Y-74438104D01*
X75757256Y-74402184D01*
X75676543Y-74210987D01*
X75238605Y-74014551D01*
X74758831Y-74000660D01*
X74310261Y-74171428D01*
X74251057Y-74210987D01*
X74170344Y-74402184D01*
X74963800Y-75195639D01*
X75757256Y-74402184D01*
X75757256Y-74438104D01*
X74981761Y-75213600D01*
X75775216Y-76007056D01*
X75966413Y-75926343D01*
X76162849Y-75488405D01*
X76176740Y-75008631D01*
X76176740Y-94661729D01*
X75897748Y-94777007D01*
X75757256Y-94917254D01*
X75757256Y-76025016D01*
X74963800Y-75231561D01*
X74945839Y-75249521D01*
X74945839Y-75213600D01*
X74152384Y-74420144D01*
X73961187Y-74500857D01*
X73764751Y-74938795D01*
X73750860Y-75418569D01*
X73921628Y-75867139D01*
X73961187Y-75926343D01*
X74152384Y-76007056D01*
X74945839Y-75213600D01*
X74945839Y-75249521D01*
X74170344Y-76025016D01*
X74251057Y-76216213D01*
X74688995Y-76412649D01*
X75168769Y-76426540D01*
X75617339Y-76255772D01*
X75676543Y-76216213D01*
X75757256Y-76025016D01*
X75757256Y-94917254D01*
X75558199Y-95115964D01*
X75374210Y-95559059D01*
X75373791Y-96038836D01*
X75557007Y-96482252D01*
X75895964Y-96821801D01*
X76339059Y-97005790D01*
X76818836Y-97006209D01*
X77262252Y-96822993D01*
X77601801Y-96484036D01*
X77785790Y-96040941D01*
X77786209Y-95561164D01*
X77786209Y-97873000D01*
X75252436Y-97873000D01*
X75252436Y-95595111D01*
X75081737Y-95146728D01*
X75042200Y-95087557D01*
X74851056Y-95006905D01*
X74833095Y-95024866D01*
X74833095Y-94988944D01*
X74752443Y-94797800D01*
X74314686Y-94601448D01*
X74073217Y-94594457D01*
X74073217Y-91466699D01*
X73971500Y-91220526D01*
X73971500Y-88400000D01*
X73927997Y-88181297D01*
X73927997Y-88181296D01*
X73804112Y-87995888D01*
X73804108Y-87995885D01*
X70872015Y-85063791D01*
X70770959Y-84819217D01*
X70581778Y-84629706D01*
X70334475Y-84527017D01*
X70066699Y-84526783D01*
X69819217Y-84629041D01*
X69629706Y-84818222D01*
X69527017Y-85065525D01*
X69526783Y-85333301D01*
X69629041Y-85580783D01*
X69818222Y-85770294D01*
X70064215Y-85872439D01*
X72828500Y-88636723D01*
X72828500Y-91221126D01*
X72727017Y-91465525D01*
X72726783Y-91733301D01*
X72829041Y-91980783D01*
X73018222Y-92170294D01*
X73265525Y-92272983D01*
X73533301Y-92273217D01*
X73780783Y-92170959D01*
X73970294Y-91981778D01*
X74072983Y-91734475D01*
X74073217Y-91466699D01*
X74073217Y-94594457D01*
X73835111Y-94587564D01*
X73386728Y-94758263D01*
X73327557Y-94797800D01*
X73246905Y-94988944D01*
X74040000Y-95782039D01*
X74833095Y-94988944D01*
X74833095Y-95024866D01*
X74057961Y-95800000D01*
X74851056Y-96593095D01*
X75042200Y-96512443D01*
X75238552Y-96074686D01*
X75252436Y-95595111D01*
X75252436Y-97873000D01*
X74833095Y-97873000D01*
X74833095Y-96611056D01*
X74040000Y-95817961D01*
X74022039Y-95835922D01*
X74022039Y-95800000D01*
X73228944Y-95006905D01*
X73037800Y-95087557D01*
X72841448Y-95525314D01*
X72827564Y-96004889D01*
X72998263Y-96453272D01*
X73037800Y-96512443D01*
X73228944Y-96593095D01*
X74022039Y-95800000D01*
X74022039Y-95835922D01*
X73246905Y-96611056D01*
X73327557Y-96802200D01*
X73765314Y-96998552D01*
X74244889Y-97012436D01*
X74693272Y-96841737D01*
X74752443Y-96802200D01*
X74833095Y-96611056D01*
X74833095Y-97873000D01*
X72706000Y-97873000D01*
X72706000Y-96700785D01*
X72706000Y-96549214D01*
X72706000Y-94899214D01*
X72647996Y-94759180D01*
X72540819Y-94652004D01*
X72400785Y-94594000D01*
X72249214Y-94594000D01*
X70599214Y-94594000D01*
X70459180Y-94652004D01*
X70352004Y-94759181D01*
X70294000Y-94899215D01*
X70294000Y-95050786D01*
X70294000Y-96700786D01*
X70352004Y-96840820D01*
X70459181Y-96947996D01*
X70599215Y-97006000D01*
X70750786Y-97006000D01*
X72400786Y-97006000D01*
X72540820Y-96947996D01*
X72647996Y-96840819D01*
X72706000Y-96700785D01*
X72706000Y-97873000D01*
X63356352Y-97873000D01*
X63356352Y-73947584D01*
X63356352Y-61247584D01*
X63047650Y-60500468D01*
X62476538Y-59928359D01*
X61729963Y-59618354D01*
X60921584Y-59617648D01*
X60174468Y-59926350D01*
X59602359Y-60497462D01*
X59355709Y-61091461D01*
X59355709Y-59696565D01*
X59172418Y-59252965D01*
X58833320Y-58913275D01*
X58390041Y-58729210D01*
X57910065Y-58728791D01*
X57466465Y-58912082D01*
X57126775Y-59251180D01*
X56942710Y-59694459D01*
X56942291Y-60174435D01*
X57125582Y-60618035D01*
X57464680Y-60957725D01*
X57907959Y-61141790D01*
X58387935Y-61142209D01*
X58831535Y-60958918D01*
X59171225Y-60619820D01*
X59355290Y-60176541D01*
X59355709Y-59696565D01*
X59355709Y-61091461D01*
X59292354Y-61244037D01*
X59291648Y-62052416D01*
X59600350Y-62799532D01*
X60171462Y-63371641D01*
X60918037Y-63681646D01*
X61726416Y-63682352D01*
X62473532Y-63373650D01*
X63045641Y-62802538D01*
X63355646Y-62055963D01*
X63356352Y-61247584D01*
X63356352Y-73947584D01*
X63047650Y-73200468D01*
X62476538Y-72628359D01*
X61729963Y-72318354D01*
X60921584Y-72317648D01*
X60174468Y-72626350D01*
X59602359Y-73197462D01*
X59292354Y-73944037D01*
X59291648Y-74752416D01*
X59600350Y-75499532D01*
X60171462Y-76071641D01*
X60918037Y-76381646D01*
X61726416Y-76382352D01*
X62473532Y-76073650D01*
X63045641Y-75502538D01*
X63355646Y-74755963D01*
X63356352Y-73947584D01*
X63356352Y-97873000D01*
X59355709Y-97873000D01*
X59355709Y-75825565D01*
X59172418Y-75381965D01*
X58833320Y-75042275D01*
X58390041Y-74858210D01*
X57910065Y-74857791D01*
X57466465Y-75041082D01*
X57126775Y-75380180D01*
X56942710Y-75823459D01*
X56942291Y-76303435D01*
X57125582Y-76747035D01*
X57464680Y-77086725D01*
X57907959Y-77270790D01*
X58387935Y-77271209D01*
X58831535Y-77087918D01*
X59171225Y-76748820D01*
X59355290Y-76305541D01*
X59355709Y-75825565D01*
X59355709Y-97873000D01*
X55042179Y-97873000D01*
X55413680Y-97719499D01*
X56316330Y-96818424D01*
X56805442Y-95640511D01*
X56806555Y-94365085D01*
X56319499Y-93186320D01*
X55418424Y-92283670D01*
X54240511Y-91794558D01*
X52965085Y-91793445D01*
X51786320Y-92280501D01*
X50883670Y-93181576D01*
X50727000Y-93558879D01*
X50727000Y-56442179D01*
X50880501Y-56813680D01*
X51781576Y-57716330D01*
X52959489Y-58205442D01*
X54234915Y-58206555D01*
X55413680Y-57719499D01*
X56316330Y-56818424D01*
X56805442Y-55640511D01*
X56806555Y-54365085D01*
X56319499Y-53186320D01*
X55418424Y-52283670D01*
X55041120Y-52127000D01*
X130157820Y-52127000D01*
X129786320Y-52280501D01*
X128883670Y-53181576D01*
X128394558Y-54359489D01*
X128393445Y-55634915D01*
X128880501Y-56813680D01*
X129781576Y-57716330D01*
X130959489Y-58205442D01*
X132234915Y-58206555D01*
X133413680Y-57719499D01*
X134316330Y-56818424D01*
X134473000Y-56441120D01*
X134473000Y-93557820D01*
M02*
