M48
INCH,TZ
T1C0.013
T2C0.039
T3C0.040
T4C0.041
T5C0.045
T6C0.062
T7C0.128
T8C0.128
T9C0.129
%
G90
G05
T1
X2.7638Y-3.3543
X2.8898Y-3.4016
X2.8898Y-3.6063
X2.9843Y-3.4094
X3.2905Y-2.5276
X3.3071Y-3.5669
X3.315Y-2.4016
X3.315Y-2.4646
X3.315Y-2.8268
X3.3228Y-2.8819
X3.3543Y-2.5669
X3.374Y-3.561
X3.4173Y-2.3543
X3.4409Y-2.6299
X3.4409Y-3.6378
X3.4646Y-3.6142
X3.4724Y-2.4409
X3.4882Y-3.4252
X3.4882Y-3.5906
X3.4961Y-3.2598
X3.501Y-3.455
X3.5039Y-3.1654
X3.5039Y-3.1969
X3.5039Y-3.2283
X3.5118Y-3.5669
X3.576Y-3.513
X3.5906Y-2.315
X3.5984Y-2.937
X3.636Y-2.609
X3.6514Y-2.3873
X3.6535Y-3.3386
X3.6535Y-3.4094
X3.6772Y-2.3701
X3.6772Y-3.0945
X3.685Y-2.315
X3.685Y-3.063
X3.7053Y-2.3943
X3.7323Y-2.6063
X3.7402Y-2.3465
X3.7402Y-2.3858
X3.7402Y-2.9843
X3.7402Y-3.2598
X3.7559Y-2.7559
X3.7638Y-2.9606
X3.7638Y-3.811
X3.7717Y-2.9213
X3.7795Y-3.4488
X3.7881Y-3.8303
X3.8031Y-3.6378
X3.811Y-2.9213
X3.8268Y-3.5748
X3.8447Y-2.9385
X3.8504Y-3.3386
X3.8976Y-2.315
X3.9606Y-2.748
X4.Y-3.3228
X4.0157Y-3.6063
X4.1024Y-3.4961
X4.1181Y-3.2205
X4.4882Y-2.9764
X4.56Y-2.62
X4.7402Y-2.8031
T2
X2.815Y-3.7717
X2.915Y-3.7717
X3.015Y-3.7717
X3.115Y-3.7717
X3.215Y-3.7717
X3.315Y-3.7717
X3.3819Y-2.878
X3.3819Y-2.978
X3.3819Y-3.078
X3.3819Y-3.178
X3.3819Y-3.278
X3.3819Y-3.378
X3.415Y-3.7717
X3.515Y-3.7717
X3.615Y-3.7717
X3.715Y-3.7717
X3.878Y-3.7717
X3.978Y-3.7717
X4.078Y-3.7717
X4.1063Y-2.4961
X4.1063Y-2.5961
X4.1063Y-2.6961
X4.1063Y-2.7961
X4.1063Y-2.8961
X4.1063Y-2.9961
X4.178Y-3.7717
X4.27Y-2.45
X4.27Y-2.55
X4.278Y-3.7717
X4.37Y-2.45
X4.37Y-2.55
X4.378Y-3.7717
X4.47Y-2.45
X4.47Y-2.55
T3
X2.8543Y-2.4772
X2.8543Y-2.5572
X2.8543Y-2.6372
X2.8543Y-2.7172
X2.8543Y-2.7972
X2.8543Y-2.8772
T4
X4.9567Y-2.737
X4.9567Y-2.8449
X4.9567Y-2.9528
X4.9567Y-3.0606
X4.9567Y-3.1685
X5.0685Y-2.7909
X5.0685Y-2.8988
X5.0685Y-3.0067
X5.0685Y-3.1146
T5
X2.9513Y-2.3932
X2.9513Y-2.4932
X2.9513Y-2.8612
X2.9513Y-2.9612
T6
X2.2893Y-2.3597
X2.2893Y-2.9947
T7
X5.0126Y-2.4608
X5.0126Y-3.4447
T8
X2.4143Y-2.4272
X2.4143Y-2.9272
T9
X2.1102Y-2.1654
X2.1102Y-3.7402
X5.1811Y-2.1654
X5.1811Y-3.7402
T0
M30
